<?xml version="1.0" encoding="UTF-8" standalone="no"?>
<!-- Created with Inkscape (http://www.inkscape.org/) -->

<svg
   width="100mm"
   height="100mm"
   viewBox="0 0 100 100"
   version="1.1"
   id="svg5"
   inkscape:version="1.2.1 (9c6d41e410, 2022-07-14)"
   sodipodi:docname="WUGcosQR.svg"
   inkscape:export-filename="WUGcos.png"
   inkscape:export-xdpi="350"
   inkscape:export-ydpi="350"
   xmlns:inkscape="http://www.inkscape.org/namespaces/inkscape"
   xmlns:sodipodi="http://sodipodi.sourceforge.net/DTD/sodipodi-0.dtd"
   xmlns="http://www.w3.org/2000/svg"
   xmlns:svg="http://www.w3.org/2000/svg">
  <sodipodi:namedview
     id="namedview7"
     pagecolor="#ffffff"
     bordercolor="#000000"
     borderopacity="0.25"
     inkscape:showpageshadow="2"
     inkscape:pageopacity="0.0"
     inkscape:pagecheckerboard="0"
     inkscape:deskcolor="#d1d1d1"
     inkscape:document-units="mm"
     showgrid="false"
     inkscape:zoom="1.6816188"
     inkscape:cx="-24.083936"
     inkscape:cy="209.61945"
     inkscape:window-width="1920"
     inkscape:window-height="991"
     inkscape:window-x="-9"
     inkscape:window-y="-9"
     inkscape:window-maximized="1"
     inkscape:current-layer="svg5" />
  <defs
     id="defs2">
    <inkscape:path-effect
       effect="simplify"
       id="path-effect4968"
       is_visible="true"
       lpeversion="1"
       steps="1"
       threshold="0.002"
       smooth_angles="0"
       helper_size="5"
       simplify_individual_paths="false"
       simplify_just_coalesce="false" />
    <inkscape:path-effect
       effect="fillet_chamfer"
       id="path-effect4202"
       is_visible="true"
       lpeversion="1"
       nodesatellites_param="F,0,0,1,0,4.3301582,0,1 @ F,0,0,1,0,0.14978763,0,1 @ F,0,0,1,0,4.8113647,0,1"
       unit="px"
       method="auto"
       mode="F"
       radius="0"
       chamfer_steps="1"
       flexible="false"
       use_knot_distance="true"
       apply_no_radius="true"
       apply_with_radius="true"
       only_selected="false"
       hide_knots="false" />
    <inkscape:path-effect
       effect="slice"
       start_point="57.349873,16.205864"
       end_point="57.349873,88.89624"
       center_point="57.349873,52.551052"
       id="path-effect4177"
       is_visible="true"
       lpeversion="1.2"
       lpesatellites=""
       allow_transforms="true" />
    <inkscape:path-effect
       center_point="36.063332,36.571537"
       end_point="36.063332,37.957481"
       start_point="36.063332,35.185593"
       effect="slice"
       id="path-effect3593"
       is_visible="true"
       lpeversion="1.2"
       lpesatellites="#path3595"
       allow_transforms="true" />
    <inkscape:path-effect
       effect="spiro"
       id="path-effect2461"
       is_visible="true"
       lpeversion="1" />
    <inkscape:path-effect
       effect="perspective-envelope"
       up_left_point="29.207417,22.062446"
       up_right_point="34.411694,20.415149"
       down_left_point="27.613258,32.573663"
       down_right_point="37.493733,31.245197"
       id="path-effect970"
       is_visible="true"
       lpeversion="1"
       deform_type="perspective"
       horizontal_mirror="false"
       vertical_mirror="false"
       overflow_perspective="false" />
    <inkscape:path-effect
       effect="fillet_chamfer"
       id="path-effect968"
       is_visible="true"
       lpeversion="1"
       nodesatellites_param="F,0,0,1,0,4.5167819,0,2 @ F,0,0,1,0,0.36503482,0,2 @ F,0,0,1,0,0,0,1 @ F,0,0,1,0,0,0,1 @ F,0,0,1,0,3.0334011,0,2 @ F,0,0,1,0,0,0,2 @ F,0,0,1,0,0,0,1 @ F,0,0,1,0,0.20635018,0,1"
       unit="px"
       method="auto"
       mode="F"
       radius="0"
       chamfer_steps="1"
       flexible="false"
       use_knot_distance="true"
       apply_no_radius="true"
       apply_with_radius="true"
       only_selected="false"
       hide_knots="false" />
    <inkscape:path-effect
       effect="fillet_chamfer"
       id="path-effect968-3"
       is_visible="true"
       lpeversion="1"
       nodesatellites_param="F,0,0,1,0,4.5167819,0,2 @ F,0,0,1,0,0.36503482,0,2 @ F,0,0,1,0,0,0,1 @ F,0,0,1,0,0,0,1 @ F,0,0,1,0,3.0334011,0,2 @ F,0,0,1,0,0,0,2 @ F,0,0,1,0,0,0,1 @ F,0,0,1,0,0.20635018,0,1"
       unit="px"
       method="auto"
       mode="F"
       radius="0"
       chamfer_steps="1"
       flexible="false"
       use_knot_distance="true"
       apply_no_radius="true"
       apply_with_radius="true"
       only_selected="false"
       hide_knots="false" />
    <inkscape:path-effect
       effect="perspective-envelope"
       up_left_point="28.941724,22.328139"
       up_right_point="34.146001,20.680842"
       down_left_point="27.347565,32.839356"
       down_right_point="37.22804,31.51089"
       id="path-effect970-5"
       is_visible="true"
       lpeversion="1"
       deform_type="perspective"
       horizontal_mirror="false"
       vertical_mirror="false"
       overflow_perspective="false" />
    <inkscape:path-effect
       effect="fillet_chamfer"
       id="path-effect4202-2"
       is_visible="true"
       lpeversion="1"
       nodesatellites_param="F,0,0,1,0,4.3301582,0,1 @ F,0,0,1,0,0.14978763,0,1 @ F,0,0,1,0,4.8113647,0,1"
       unit="px"
       method="auto"
       mode="F"
       radius="0"
       chamfer_steps="1"
       flexible="false"
       use_knot_distance="true"
       apply_no_radius="true"
       apply_with_radius="true"
       only_selected="false"
       hide_knots="false" />
    <inkscape:path-effect
       effect="fillet_chamfer"
       id="path-effect4202-7"
       is_visible="true"
       lpeversion="1"
       nodesatellites_param="F,0,0,1,0,4.3301582,0,1 @ F,0,0,1,0,0.14978763,0,1 @ F,0,0,1,0,4.8113647,0,1"
       unit="px"
       method="auto"
       mode="F"
       radius="0"
       chamfer_steps="1"
       flexible="false"
       use_knot_distance="true"
       apply_no_radius="true"
       apply_with_radius="true"
       only_selected="false"
       hide_knots="false" />
    <inkscape:path-effect
       effect="fillet_chamfer"
       id="path-effect4202-7-9"
       is_visible="true"
       lpeversion="1"
       nodesatellites_param="F,0,0,1,0,4.3301582,0,1 @ F,0,0,1,0,0.14978763,0,1 @ F,0,0,1,0,4.8113647,0,1"
       unit="px"
       method="auto"
       mode="F"
       radius="0"
       chamfer_steps="1"
       flexible="false"
       use_knot_distance="true"
       apply_no_radius="true"
       apply_with_radius="true"
       only_selected="false"
       hide_knots="false" />
    <inkscape:path-effect
       effect="spiro"
       id="path-effect2461-1"
       is_visible="true"
       lpeversion="1" />
    <inkscape:path-effect
       center_point="36.063332,36.571537"
       end_point="36.063332,37.957481"
       start_point="36.063332,35.185593"
       effect="slice"
       id="path-effect3593-5"
       is_visible="true"
       lpeversion="1.2"
       lpesatellites="#path3595-7"
       allow_transforms="true" />
    <inkscape:path-effect
       effect="fillet_chamfer"
       id="path-effect968-3-1"
       is_visible="true"
       lpeversion="1"
       nodesatellites_param="F,0,0,1,0,4.5167819,0,2 @ F,0,0,1,0,0.36503482,0,2 @ F,0,0,1,0,0,0,1 @ F,0,0,1,0,0,0,1 @ F,0,0,1,0,3.0334011,0,2 @ F,0,0,1,0,0,0,2 @ F,0,0,1,0,0,0,1 @ F,0,0,1,0,0.20635018,0,1"
       unit="px"
       method="auto"
       mode="F"
       radius="0"
       chamfer_steps="1"
       flexible="false"
       use_knot_distance="true"
       apply_no_radius="true"
       apply_with_radius="true"
       only_selected="false"
       hide_knots="false" />
    <inkscape:path-effect
       effect="perspective-envelope"
       up_left_point="28.941724,22.328139"
       up_right_point="34.146001,20.680842"
       down_left_point="27.347565,32.839356"
       down_right_point="37.22804,31.51089"
       id="path-effect970-5-2"
       is_visible="true"
       lpeversion="1"
       deform_type="perspective"
       horizontal_mirror="false"
       vertical_mirror="false"
       overflow_perspective="false" />
  </defs>
  <g
     inkscape:label="TacoBack"
     inkscape:groupmode="layer"
     id="layer1"
     style="display:inline;fill:#d3831d;fill-opacity:1"
     transform="matrix(6.3894242,0,0,6.3894242,-152.53717,-121.08832)">
    <path
       style="fill:#d3831d;fill-opacity:1;stroke:#d3831d;stroke-width:0.756999;stroke-linecap:round;stroke-linejoin:bevel;stroke-opacity:1;paint-order:markers fill stroke"
       id="rect933"
       width="7.8612056"
       height="13.221285"
       x="28.197786"
       y="21.584198"
       ry="4.9633446"
       inkscape:path-effect="#path-effect968;#path-effect970"
       d="m 32.285891,21.088024 1.649368,-0.52207 c 0.143844,-0.04553 0.334189,-0.03972 0.378381,0.03631 0.170305,0.292992 0.478572,1.149992 0.823177,2.360907 l 0.692435,2.433164 c 0.179063,0.629214 0.352613,1.275989 0.512417,1.907951 0.506965,2.00485 -1.215555,4.259243 -3.439527,4.558264 l -4.96837,0.668016 c -0.178025,0.02394 0.104607,-2.75997 0.509739,-5.431243 l 0.346186,-2.282609 c 0.01111,-0.07323 0.02888,-0.19053 0.03992,-0.262063 0.0088,-0.05727 0.01766,-0.113738 0.02645,-0.169383 0.218314,-1.381921 1.794539,-2.779633 3.429828,-3.297247 z"
       sodipodi:type="rect"
       rx="0.29911077" />
    <g
       inkscape:groupmode="layer"
       id="layer2"
       inkscape:label="Filling"
       style="fill:#aa0000"
       transform="translate(0.13694178,-0.22823663)">
      <path
         style="fill:#63a745;fill-opacity:1;stroke:#63a745;stroke-width:0.765;stroke-linecap:round;stroke-linejoin:bevel;stroke-dasharray:none;stroke-opacity:1;paint-order:markers fill stroke"
         d="m 30.023537,29.321115 c 0.514493,-1.002969 1.115271,-1.961659 1.793523,-2.862006 0.691085,-0.917383 1.496465,-1.799457 2.547127,-2.263461 0.429624,-0.189735 0.895569,-0.304972 1.365224,-0.304476 0.469656,4.97e-4 0.942945,0.119894 1.3404,0.370106 0.13668,0.08604 0.268121,0.192031 0.33936,0.336979 0.06232,0.126795 0.07308,0.275866 0.04157,0.413588 -0.03151,0.137723 -0.103518,0.264322 -0.196553,0.370646 -0.186068,0.212649 -0.44774,0.341594 -0.704862,0.458765 -0.05101,0.02324 -0.102284,0.04632 -0.150035,0.07568 -0.151591,0.09319 -0.257802,0.242664 -0.374422,0.377068 -0.04325,0.04985 -0.08862,0.09832 -0.124484,0.153728 -0.03586,0.05541 -0.06211,0.119105 -0.06219,0.185104 -7.5e-5,0.06053 0.02233,0.120251 0.05934,0.168143 0.03701,0.04789 0.0881,0.08414 0.144222,0.106808 0.112244,0.04533 0.240167,0.03614 0.356375,0.0022 0.116208,-0.0339 0.224027,-0.09097 0.33401,-0.141536 0.109983,-0.05057 0.225289,-0.09548 0.346141,-0.102443 0.100407,-0.0058 0.201071,0.01507 0.295353,0.05008 0.09428,0.03501 0.182763,0.08394 0.268928,0.135807 0.16824,0.101282 0.331152,0.216271 0.458452,0.365795 0.1273,0.149524 0.217263,0.337273 0.221061,0.53361 0.0025,0.128398 -0.03142,0.254792 -0.07383,0.376008 -0.06658,0.190272 -0.155644,0.374185 -0.279232,0.533439 -0.123587,0.159253 -0.283047,0.293362 -0.469083,0.370993 -0.163056,0.06804 -0.341203,0.09117 -0.517532,0.102362 -0.176328,0.01119 -0.353689,0.01113 -0.528653,0.03572 -0.174964,0.02458 -0.350038,0.07557 -0.493424,0.178802 -0.07169,0.05162 -0.134661,0.116027 -0.180951,0.19127 -0.04629,0.07524 -0.07558,0.161472 -0.08037,0.249684 -0.0063,0.117022 0.03015,0.232851 0.08252,0.337696 0.05237,0.104845 0.120437,0.200887 0.18275,0.300142 0.0951,0.151476 0.177856,0.313017 0.219669,0.486914 0.04181,0.173897 0.04048,0.361804 -0.02823,0.526935 -0.04854,0.116669 -0.12907,0.218427 -0.224385,0.301391 -0.198572,0.17284 -0.465217,0.265241 -0.728158,0.252331 -0.26294,-0.01291 -0.519251,-0.13099 -0.699935,-0.322451 -0.25455,-0.16599 -0.534947,-0.292258 -0.827956,-0.372844 -0.342221,-0.09412 -0.698307,-0.125628 -1.052615,-0.146594 -0.249255,-0.01475 -0.500737,-0.02439 -0.747456,0.01402 -0.24672,0.03841 -0.490708,0.127977 -0.679313,0.291604 -0.173236,0.150294 -0.290363,0.353472 -0.437109,0.529723 -0.07337,0.08813 -0.155261,0.170457 -0.251583,0.232681 -0.09632,0.06222 -0.208116,0.103694 -0.322776,0.10538 -0.09477,0.0014 -0.189061,-0.02449 -0.272749,-0.06898 -0.08369,-0.04448 -0.157006,-0.107168 -0.21862,-0.179184 -0.123227,-0.144034 -0.198671,-0.322293 -0.262765,-0.500682 -0.07803,-0.217179 -0.143326,-0.441916 -0.265269,-0.637838 -0.04773,-0.07669 -0.103637,-0.148056 -0.151091,-0.224918 -0.118374,-0.191733 -0.181842,-0.416946 -0.181002,-0.642275 8.4e-4,-0.225329 0.06599,-0.450062 0.185785,-0.640907 0.1198,-0.190845 0.293877,-0.347199 0.496441,-0.445899 0.202564,-0.0987 0.432976,-0.139433 0.657102,-0.116167"
         id="path2459"
         inkscape:original-d="m 30.023537,29.321115 c 0.29355,-1.095737 1.109707,-1.985361 1.793523,-2.862006 0.715935,-0.917822 1.458716,-1.775128 2.547127,-2.263461 1.019364,-0.457353 1.773192,-0.613121 2.705624,0.06563 0.128887,0.09381 0.282865,0.187907 0.33936,0.336979 0.205935,0.543337 -0.520901,0.992605 -0.859848,1.242999 -0.04504,0.03329 -0.107634,0.03908 -0.150035,0.07568 -0.134075,0.11575 -0.249614,0.251378 -0.374422,0.377068 -0.09086,0.0915 -0.304266,0.28588 -0.186677,0.338832 0.409242,0.184297 0.824892,-0.02066 1.240088,0.03321 0.196393,0.02548 0.374397,0.129649 0.564281,0.185885 0.494139,0.146351 0.655587,0.349653 0.679513,0.899405 0.0056,0.127616 -0.01956,0.260382 -0.07383,0.376008 -0.09346,0.199015 -0.577427,0.811638 -0.748315,0.904432 -0.240311,0.130487 -1.749645,0.496649 -1.800927,0.757838 -0.05115,0.260528 0.145818,0.45158 0.265269,0.637838 0.26059,0.406336 0.285789,0.533329 0.191443,1.013849 -0.02367,0.120573 -0.101401,0.25561 -0.224385,0.301391 -0.323878,0.12062 -1.113844,0.0144 -1.428093,-0.07012 -0.396258,0.137732 -0.540478,-0.278135 -0.827956,-0.372844 -0.335949,-0.110665 -0.701299,-0.14783 -1.052615,-0.146594 -0.371918,0.0013 -1.092451,0.09122 -1.426769,0.305621 -0.266778,0.171091 -0.69037,0.902317 -1.011468,0.867784 -0.352542,-0.03792 -0.598618,-0.491698 -0.754134,-0.748845 -0.17361,-0.287049 -0.156768,-0.369328 -0.265269,-0.637838 -0.03384,-0.08374 -0.133096,-0.136388 -0.151091,-0.224918 -0.12254,-0.601677 0.803451,-1.487866 1.158326,-1.845248"
         inkscape:path-effect="#path-effect2461" />
      <a
         id="a3563"
         transform="matrix(0.77474518,0.24377535,-0.2553929,0.81166703,29.820863,-12.036193)">
        <ellipse
           style="fill:#803300;fill-opacity:1;stroke:#803300;stroke-width:0.765;stroke-linecap:round;stroke-linejoin:bevel;stroke-dasharray:none;stroke-opacity:1;paint-order:markers fill stroke"
           id="path3499"
           cx="23.062159"
           cy="45.034973"
           rx="1.5941584"
           ry="1.3550346" />
        <ellipse
           style="fill:#803300;fill-opacity:1;stroke:#803300;stroke-width:0.765;stroke-linecap:round;stroke-linejoin:bevel;stroke-dasharray:none;stroke-opacity:1;paint-order:markers fill stroke"
           id="path3553"
           cx="21.388292"
           cy="42.696873"
           rx="1.1956187"
           ry="1.0893415" />
        <circle
           style="fill:#803300;fill-opacity:1;stroke:#803300;stroke-width:0.765;stroke-linecap:round;stroke-linejoin:bevel;stroke-dasharray:none;stroke-opacity:1;paint-order:markers fill stroke"
           id="path3555"
           cx="20.910044"
           cy="46.788548"
           r="0.77050984" />
        <ellipse
           style="fill:#803300;fill-opacity:1;stroke:#803300;stroke-width:0.765;stroke-linecap:round;stroke-linejoin:bevel;stroke-dasharray:none;stroke-opacity:1;paint-order:markers fill stroke"
           id="path3557"
           cx="23.248142"
           cy="43.148552"
           rx="0.55795538"
           ry="0.42510888" />
      </a>
      <a
         id="a3612"
         transform="rotate(58.450855,45.785711,29.000265)">
        <circle
           style="fill:#aa0000;fill-opacity:1;stroke:#9d160e;stroke-width:0.765;stroke-linecap:round;stroke-linejoin:bevel;stroke-dasharray:none;stroke-opacity:1;paint-order:markers fill stroke"
           id="path2278"
           r="1.992698"
           cy="36.585934"
           cx="36.107685" />
        <path
           style="fill:#c44444;fill-opacity:1;stroke:#9d160e;stroke-width:0.532066;stroke-linecap:round;stroke-linejoin:bevel;stroke-dasharray:none;stroke-opacity:0;paint-order:markers fill stroke"
           id="path2278-6"
           class="UnoptimicedTransforms"
           transform="translate(-0.15637216,0.03909304)"
           d="m 36.063332,35.185547 c -2.77e-4,0 -5.55e-4,0 -8.32e-4,0 -0.765436,0 -1.384766,0.621283 -1.384766,1.386719 0,0.765435 0.61933,1.384765 1.384766,1.384765 2.77e-4,0 5.55e-4,0 8.32e-4,0 z"
           sodipodi:type="arc"
           sodipodi:ry="1.3859437"
           sodipodi:rx="1.3859437"
           sodipodi:cy="36.571537"
           sodipodi:cx="36.063332"
           inkscape:path-effect="#path-effect3593" />
        <path
           class="UnoptimicedTransforms"
           id="path3595"
           d="m 36.063332,37.957031 c 0.765053,-4.49e-4 1.385887,-0.619607 1.385887,-1.384765 0,-0.765159 -0.620834,-1.386269 -1.385887,-1.386719 z"
           style="display:inline;fill:#c44444;fill-opacity:1;stroke:#9d160e;stroke-width:0.532066;stroke-linecap:round;stroke-linejoin:bevel;stroke-dasharray:none;stroke-opacity:0;paint-order:markers fill stroke"
           transform="translate(0.31274433,0.03909304)" />
      </a>
    </g>
    <g
       inkscape:label="TacoFront"
       inkscape:groupmode="layer"
       id="layer1-7"
       transform="translate(-1.2032476,0.00942948)">
      <a
         id="a3615">
        <path
           style="fill:#e0ad2e;fill-opacity:0.988235;stroke:#e0ae2e;stroke-width:0.756999;stroke-linecap:round;stroke-linejoin:bevel;stroke-opacity:0.988235;paint-order:markers fill stroke"
           id="rect933-1"
           width="7.8612056"
           height="13.221285"
           x="27.932093"
           y="21.849892"
           ry="4.9633446"
           sodipodi:type="rect"
           rx="0.29911077"
           d="m 32.020198,21.353717 1.649368,-0.52207 c 0.143844,-0.04553 0.334189,-0.03972 0.378381,0.03631 0.170305,0.292992 0.478572,1.149992 0.823177,2.360907 l 0.692435,2.433164 c 0.179063,0.629214 0.352613,1.275989 0.512417,1.907951 0.506965,2.00485 -1.215555,4.259243 -3.439527,4.558264 l -4.96837,0.668016 c -0.178025,0.02394 0.104607,-2.75997 0.509739,-5.431243 l 0.346186,-2.282609 c 0.01111,-0.07323 0.02888,-0.19053 0.03992,-0.262063 0.0088,-0.05727 0.01766,-0.113738 0.02645,-0.169383 0.218314,-1.381921 1.794539,-2.779633 3.429828,-3.297247 z"
           inkscape:path-effect="#path-effect968-3;#path-effect970-5" />
      </a>
      <circle
         style="fill:#623c0c;fill-opacity:1;stroke:#623c0c;stroke-width:0.765;stroke-linecap:round;stroke-linejoin:bevel;stroke-dasharray:none;stroke-opacity:1;paint-order:markers fill stroke"
         id="path2170"
         cx="32.230804"
         cy="23.228537"
         r="0.34540096" />
    </g>
  </g>
  <path
     style="fill:#623c0c;fill-opacity:1;stroke-width:0.159536"
     d="m 28.693016,74.359562 -0.516541,-3.310211 3.310212,-0.51654 3.310211,-0.51654 0.516539,3.310211 0.516541,3.31021 -3.310212,0.516539 -3.31021,0.51654 z m 5.674647,-0.885497 -0.368958,-2.364438 -2.364436,0.368957 -2.364435,0.368957 0.368957,2.364438 0.368957,2.364435 2.364436,-0.368957 2.364436,-0.368956 z m -3.783098,0.590331 -0.221374,-1.41866 1.418662,-0.221375 1.418662,-0.221374 0.221374,1.41866 0.221375,1.418663 -1.418663,0.221374 -1.418662,0.221374 z m 5.82223,0.06027 -0.368956,-2.364433 0.472888,-0.07379 0.472885,-0.07379 0.147583,0.945772 0.147583,0.945777 0.472888,-0.07379 c 0.420347,-0.06559 0.481088,-0.02127 0.54668,0.399092 l 0.07379,0.47289 0.945773,-0.147582 0.945776,-0.147584 0.07379,0.47289 c 0.06559,0.420344 0.02126,0.481081 -0.399098,0.546675 -0.420345,0.06559 -0.464691,0.126323 -0.399096,0.546682 l 0.07379,0.472884 -1.418662,0.221373 -1.41866,0.221375 z m 2.039134,0.650614 c -0.06559,-0.42035 -0.126321,-0.464693 -0.54668,-0.399098 -0.420346,0.06559 -0.464691,0.126321 -0.399096,0.546681 0.06559,0.420344 0.126321,0.464687 0.546678,0.399092 0.420347,-0.06559 0.464692,-0.126322 0.399098,-0.546675 z m 3.930679,0.355441 -0.07379,-0.472889 0.945777,-0.147583 0.945774,-0.147583 -0.07379,-0.472883 -0.07379,-0.472891 -1.418663,0.221375 -1.418661,0.221374 -0.07379,-0.472889 c -0.06559,-0.420344 -0.02126,-0.481081 0.399097,-0.546676 0.420343,-0.06559 0.464687,-0.126322 0.399094,-0.546679 -0.06559,-0.420346 -0.02127,-0.481087 0.399096,-0.54668 0.420346,-0.06559 0.464691,-0.126323 0.399096,-0.546682 -0.06559,-0.420341 -0.02126,-0.481079 0.399098,-0.546675 0.420342,-0.06559 0.464688,-0.126321 0.399093,-0.54668 l -0.07379,-0.472888 -0.945772,0.147583 -0.945778,0.147582 0.07379,0.472889 c 0.06559,0.420347 0.02127,0.481087 -0.399094,0.546681 -0.420344,0.06559 -0.481085,0.02127 -0.54668,-0.399098 -0.06559,-0.420346 -0.126322,-0.464691 -0.546678,-0.399097 -0.420343,0.06559 -0.464689,0.126322 -0.399094,0.546681 0.06559,0.420345 0.02126,0.481084 -0.399097,0.546679 -0.420345,0.06559 -0.46469,0.126323 -0.399097,0.546675 0.06559,0.420347 0.126322,0.464693 0.546681,0.399098 0.420345,-0.06559 0.481086,-0.02127 0.546678,0.399097 0.06559,0.420341 0.02127,0.481085 -0.399095,0.54668 -0.420346,0.06559 -0.481087,0.02127 -0.546681,-0.399097 -0.06559,-0.420346 -0.126323,-0.464691 -0.54668,-0.399097 -0.420342,0.06559 -0.481081,0.02126 -0.546676,-0.399098 -0.06559,-0.420341 -0.02126,-0.48108 0.399094,-0.546675 0.420345,-0.06559 0.464691,-0.126322 0.399096,-0.546679 -0.06559,-0.420347 -0.02126,-0.481087 0.399097,-0.546682 0.420346,-0.06559 0.464691,-0.126321 0.399098,-0.546676 l -0.07379,-0.472888 -0.945776,0.147584 -0.945774,0.147582 -0.07379,-0.472888 c -0.06559,-0.42035 -0.126322,-0.464694 -0.54668,-0.3991 l -0.472888,0.07379 0.147584,0.945777 0.147582,0.945772 -0.472884,0.07379 -0.472889,0.07379 -0.147582,-0.945773 -0.147583,-0.945776 -0.945776,0.147582 -0.945775,0.147584 -0.07379,-0.472885 -0.07379,-0.472889 -1.418661,0.221374 -1.418662,0.221375 -0.147583,-0.945773 -0.147583,-0.945778 -0.472888,0.07379 c -0.420343,0.06559 -0.481084,0.02127 -0.546679,-0.399097 -0.06559,-0.420342 -0.126329,-0.464685 -0.546678,-0.399092 l -0.472886,0.07379 0.295166,1.891549 0.295165,1.891547 -0.472888,0.07379 -0.472887,0.07379 -0.368957,-2.364435 -0.368958,-2.364438 0.472887,-0.07379 c 0.420345,-0.06559 0.464691,-0.126322 0.399097,-0.546675 -0.06559,-0.420346 -0.126331,-0.46469 -0.546678,-0.399097 l -0.472888,0.07379 -0.147584,-0.945776 -0.147582,-0.945774 0.472888,-0.07379 0.472887,-0.07379 0.147582,0.945773 0.147583,0.945777 0.472887,-0.07379 0.472888,-0.07379 0.147583,0.945773 0.147583,0.945777 1.418661,-0.221374 1.418664,-0.221374 0.07379,0.472884 c 0.06559,0.420345 0.02126,0.481087 -0.399095,0.54668 -0.420345,0.06559 -0.464691,0.126323 -0.399097,0.54668 l 0.07379,0.472889 0.945775,-0.147584 0.945773,-0.147583 -0.07379,-0.472888 c -0.06559,-0.420346 -0.02126,-0.481087 0.399097,-0.54668 0.420344,-0.06559 0.464689,-0.126322 0.399095,-0.54668 -0.06559,-0.420342 -0.12633,-0.464686 -0.546678,-0.399093 -0.420346,0.06559 -0.481087,0.02127 -0.54668,-0.399098 l -0.07379,-0.472887 -0.945773,0.147582 -0.945775,0.147583 -0.07379,-0.472884 c -0.06559,-0.420346 -0.02126,-0.481088 0.399095,-0.54668 l 0.472888,-0.07379 -0.147584,-0.945778 -0.147582,-0.945771 -1.418662,0.221374 -1.418663,0.221374 -0.147582,-0.945773 -0.147583,-0.945778 -0.472888,0.07379 c -0.420345,0.06559 -0.464689,0.126322 -0.399094,0.546679 0.06559,0.420347 0.02126,0.481088 -0.399097,0.546681 l -0.472887,0.07379 -0.147583,-0.945776 -0.147582,-0.945773 0.472887,-0.07379 c 0.420344,-0.06559 0.464691,-0.126322 0.399096,-0.54668 -0.06559,-0.420347 -0.02126,-0.481089 0.399094,-0.546681 l 0.472888,-0.07379 -0.221374,-1.41866 -0.221375,-1.418662 -0.945773,0.147583 -0.945776,0.147582 -0.295165,-1.89155 -0.295166,-1.891549 0.472887,-0.07379 0.472888,-0.07379 0.221375,1.418666 0.221374,1.418661 0.945774,-0.147583 0.945774,-0.147582 -0.07379,-0.472889 c -0.06559,-0.420346 -0.02126,-0.481088 0.399094,-0.54668 0.420344,-0.06559 0.46469,-0.126322 0.399097,-0.546676 -0.06559,-0.420346 -0.126331,-0.464688 -0.546679,-0.399096 -0.420344,0.06559 -0.481086,0.02127 -0.546678,-0.399098 -0.06559,-0.420342 -0.126331,-0.46469 -0.54668,-0.399097 -0.420344,0.06559 -0.481086,0.02127 -0.546679,-0.399092 l -0.07379,-0.472889 -0.945774,0.147583 -0.945775,0.147582 -0.07379,-0.472888 -0.07379,-0.472884 2.364437,-0.368957 2.364436,-0.368958 0.07379,0.472885 c 0.06559,0.420345 0.126331,0.464689 0.546678,0.399096 0.420345,-0.06559 0.46469,-0.126321 0.399095,-0.546679 l -0.07379,-0.472885 2.36444,-0.368956 2.364434,-0.368958 0.07379,0.472885 c 0.06559,0.420345 0.02127,0.481085 -0.399097,0.54668 -0.420342,0.06559 -0.464686,0.126321 -0.399092,0.546679 l 0.07379,0.472884 1.418662,-0.221375 1.41866,-0.221373 0.07379,0.472889 c 0.06559,0.420346 0.126323,0.464691 0.546681,0.399096 0.420344,-0.06559 0.464688,-0.126321 0.399093,-0.546679 l -0.07379,-0.47289 1.418665,-0.221375 1.418663,-0.221374 0.07379,0.472889 0.07379,0.47289 0.945772,-0.147584 0.945778,-0.147583 0.07379,0.472888 0.07379,0.472885 -0.945777,0.147583 -0.945773,0.147583 0.147583,0.945777 0.147583,0.945773 0.472885,-0.07379 c 0.420346,-0.06559 0.481086,-0.02127 0.54668,0.399097 0.06559,0.420341 0.126322,0.464691 0.546681,0.399097 0.42034,-0.06559 0.46469,-0.126322 0.399096,-0.54668 -0.06559,-0.420348 -0.02127,-0.481087 0.399092,-0.54668 0.420346,-0.06559 0.481087,-0.02127 0.54668,0.399098 0.06559,0.42034 0.126323,0.464691 0.546681,0.399096 l 0.472885,-0.07379 -0.147584,-0.945777 -0.147582,-0.945774 -0.472885,0.07379 -0.472889,0.07379 -0.221374,-1.41866 -0.221375,-1.418667 0.472888,-0.07379 c 0.420343,-0.06559 0.464688,-0.126322 0.399094,-0.546676 -0.06559,-0.420345 -0.126322,-0.464691 -0.546676,-0.399097 l -0.472889,0.07379 -0.221373,-1.418661 -0.221376,-1.418661 0.47289,-0.07379 c 0.420342,-0.06559 0.481081,-0.02126 0.546675,0.399093 0.06559,0.420346 0.126323,0.464692 0.546679,0.399097 0.420347,-0.06559 0.464692,-0.126322 0.399098,-0.54668 -0.06559,-0.420343 -0.02126,-0.481082 0.399093,-0.546676 l 0.472889,-0.07379 0.221375,1.418662 0.221374,1.418661 0.945776,-0.147583 0.945773,-0.147583 0.07379,0.472889 c 0.06559,0.420342 0.126322,0.464687 0.546681,0.399092 l 0.472883,-0.07379 -0.147583,-0.945773 -0.147583,-0.945772 1.89155,-0.295166 1.89155,-0.295166 0.147582,0.945772 0.147584,0.945773 0.472888,-0.07379 0.472888,-0.07379 -0.147582,-0.945772 -0.147583,-0.945773 0.472886,-0.07379 0.472887,-0.07379 0.147583,0.945773 0.147582,0.945772 0.472889,-0.07379 c 0.420341,-0.06559 0.481081,-0.02127 0.546676,0.399097 0.06559,0.420347 0.126322,0.464693 0.54668,0.399097 0.420346,-0.06559 0.464691,-0.126321 0.399097,-0.546679 -0.06559,-0.420343 -0.02127,-0.481088 0.399097,-0.546682 0.420342,-0.06559 0.481082,-0.02126 0.546676,0.399099 0.06559,0.420345 0.126323,0.464691 0.54668,0.399097 l 0.472888,-0.07379 -0.147583,-0.945778 -0.147583,-0.945774 -0.472889,0.07379 c -0.420345,0.06559 -0.481085,0.02127 -0.546679,-0.399096 -0.06559,-0.420343 -0.02126,-0.481081 0.399098,-0.546675 0.420344,-0.06559 0.481085,-0.02127 0.546679,0.399092 0.06559,0.420345 0.126322,0.464691 0.546675,0.399097 l 0.472889,-0.07379 0.147582,0.945772 0.147585,0.945778 -0.47289,0.07379 c -0.420342,0.06559 -0.464687,0.126322 -0.399092,0.546678 0.06559,0.420343 0.126322,0.464688 0.546675,0.399094 l 0.472888,-0.07379 0.221375,1.418662 0.221375,1.418665 -0.472889,0.07379 c -0.420342,0.06559 -0.464687,0.126322 -0.399093,0.546676 0.06559,0.420346 0.126323,0.46469 0.546676,0.399096 l 0.472888,-0.07379 0.221375,1.418662 0.221374,1.418662 -0.472889,0.07379 c -0.420342,0.06559 -0.464686,0.126321 -0.399092,0.546678 0.06559,0.420348 0.126323,0.464693 0.546675,0.399099 l 0.472889,-0.07379 0.147583,0.945773 0.147583,0.945773 -0.472889,0.07379 c -0.420342,0.06559 -0.481081,0.02126 -0.546675,-0.399094 l -0.07379,-0.472888 -0.945776,0.147584 -0.945774,0.147582 0.07379,0.472888 c 0.06559,0.420342 0.126322,0.464688 0.54668,0.399092 l 0.472883,-0.07379 0.147585,0.945777 0.147583,0.945773 0.945775,-0.147584 0.945774,-0.147582 0.07379,0.472888 c 0.06559,0.420347 0.02127,0.481087 -0.399097,0.546681 -0.420343,0.06559 -0.464686,0.126322 -0.399093,0.546675 0.06559,0.420345 0.126322,0.464691 0.546676,0.399098 0.420346,-0.06559 0.481086,-0.02127 0.54668,0.399096 0.06559,0.420346 0.02126,0.481086 -0.399097,0.54668 -0.420343,0.06559 -0.481082,0.02126 -0.546675,-0.399098 -0.06559,-0.420345 -0.126323,-0.46469 -0.546682,-0.399096 -0.420344,0.06559 -0.46469,0.126322 -0.399096,0.546679 l 0.07379,0.47289 -1.418662,0.221374 -1.418661,0.221374 -0.07379,-0.472889 c -0.06559,-0.420346 -0.126322,-0.464691 -0.546679,-0.399096 -0.420343,0.06559 -0.464689,0.126322 -0.399093,0.546679 l 0.07379,0.472889 -0.945778,0.147583 -0.945773,0.147583 0.07379,0.472884 0.07379,0.472888 2.364435,-0.368957 2.364437,-0.368958 0.07379,0.472889 c 0.06559,0.420343 0.02126,0.481082 -0.399097,0.546677 -0.420346,0.06559 -0.464692,0.126322 -0.399097,0.546681 l 0.07379,0.472887 1.418666,-0.221375 1.41866,-0.221373 -0.07379,-0.472889 c -0.06559,-0.420347 -0.126322,-0.464691 -0.54668,-0.399097 -0.420347,0.06559 -0.481087,0.02127 -0.54668,-0.399093 l -0.07379,-0.472889 0.945777,-0.147583 0.945772,-0.147582 0.221375,1.418661 0.221374,1.418662 -0.945773,0.147581 -0.945777,0.147584 0.147584,0.945778 0.147582,0.945772 0.945778,-0.147582 0.945771,-0.147583 0.147584,0.945776 0.147582,0.945774 -0.472888,0.07379 c -0.420341,0.06559 -0.464687,0.12632 -0.399092,0.546681 0.06559,0.420342 0.126322,0.464686 0.546674,0.399092 0.420347,-0.06559 0.481088,-0.02127 0.546681,0.399098 l 0.07379,0.472884 -1.418661,0.221373 -1.418662,0.221376 -0.07379,-0.472884 -0.07379,-0.472891 -0.945776,0.147585 -0.945773,0.147582 0.07379,0.47289 c 0.06559,0.420343 0.02126,0.48108 -0.399096,0.546674 -0.420343,0.06559 -0.481082,0.02126 -0.546676,-0.399092 l -0.07379,-0.472889 -0.945776,0.147583 -0.945773,0.147582 0.07379,0.47289 c 0.06559,0.420343 0.02126,0.48108 -0.399098,0.546675 -0.420347,0.06559 -0.481085,0.02126 -0.546679,-0.399092 -0.06559,-0.420349 -0.02127,-0.481087 0.399096,-0.546682 l 0.472889,-0.07379 -0.147582,-0.945773 -0.147583,-0.945773 -0.47289,0.07379 c -0.420345,0.06559 -0.46469,0.126322 -0.399097,0.546676 0.06559,0.420349 0.02127,0.481087 -0.399092,0.54668 -0.420346,0.06559 -0.464693,0.126323 -0.399097,0.546681 0.06559,0.420344 0.02126,0.481082 -0.399097,0.546675 l -0.47289,0.07379 -0.147582,-0.945774 -0.147583,-0.945772 0.472889,-0.07379 c 0.420346,-0.06559 0.464692,-0.126321 0.399097,-0.546679 -0.06559,-0.420346 -0.02127,-0.481086 0.399097,-0.546681 l 0.472885,-0.07379 -0.295166,-1.89155 -0.295167,-1.891549 -0.472884,0.07379 -0.472889,0.07379 0.221374,1.418665 0.221375,1.418661 -0.472887,0.07379 c -0.420343,0.06559 -0.481088,0.02127 -0.546681,-0.399096 -0.06559,-0.420347 -0.126323,-0.464693 -0.546675,-0.399099 -0.420348,0.06559 -0.481087,0.02127 -0.546681,-0.399092 l -0.07379,-0.472889 -0.945773,0.147584 -0.945777,0.147582 0.07379,0.472888 c 0.06559,0.420343 0.02126,0.481082 -0.399098,0.546676 -0.420342,0.06559 -0.48108,0.02126 -0.546675,-0.399093 -0.06559,-0.420346 -0.126322,-0.464691 -0.54668,-0.399096 l -0.472889,0.07379 0.147583,0.945773 0.147583,0.945777 -0.472884,0.07379 -0.472889,0.07379 -0.147584,-0.945778 -0.147582,-0.945772 0.472889,-0.07379 c 0.420343,-0.06559 0.464687,-0.126322 0.399093,-0.546679 -0.06559,-0.420347 -0.02127,-0.481086 0.399097,-0.54668 0.420345,-0.06559 0.46469,-0.126323 0.399098,-0.546676 -0.06559,-0.420346 -0.02127,-0.481087 0.399093,-0.54668 0.420344,-0.06559 0.46469,-0.126323 0.399097,-0.546681 -0.06559,-0.420341 -0.126323,-0.464686 -0.546681,-0.399092 -0.420343,0.06559 -0.481082,0.02127 -0.546676,-0.399099 -0.06559,-0.420344 -0.126322,-0.46469 -0.546681,-0.399095 -0.420346,0.06559 -0.481086,0.02127 -0.546678,-0.399097 -0.06559,-0.420343 -0.02126,-0.481082 0.399096,-0.546675 0.420346,-0.06559 0.464692,-0.126324 0.399097,-0.546682 l -0.07379,-0.472889 -0.945777,0.147584 -0.945773,0.147582 -0.147583,-0.945772 -0.147582,-0.945777 -0.945773,0.147583 -0.945777,0.147583 -0.07379,-0.472884 c -0.06559,-0.420346 -0.126323,-0.464691 -0.54668,-0.399097 l -0.472885,0.07379 0.147584,0.945773 0.147582,0.945777 0.472885,-0.07379 c 0.420345,-0.06559 0.481086,-0.02127 0.546679,0.399098 0.06559,0.420341 0.126323,0.464685 0.54668,0.399092 0.420343,-0.06559 0.481086,-0.02127 0.54668,0.399097 0.06559,0.420346 0.126322,0.464692 0.546676,0.399098 0.420346,-0.06559 0.481087,-0.02127 0.546679,0.399092 0.06559,0.420345 0.02126,0.481085 -0.399096,0.546679 -0.420342,0.06559 -0.481082,0.02127 -0.546676,-0.399098 -0.06559,-0.420341 -0.126321,-0.464685 -0.546679,-0.399092 -0.420346,0.06559 -0.481086,0.02127 -0.546681,-0.399097 -0.06559,-0.420346 -0.126322,-0.464691 -0.546679,-0.399096 l -0.472885,0.07379 0.147583,0.945778 0.147583,0.945773 0.472885,-0.07379 c 0.420345,-0.06559 0.481085,-0.02127 0.546679,0.399096 l 0.07379,0.472889 1.418661,-0.221374 1.418662,-0.221374 0.07379,0.472884 0.07379,0.472888 -1.891546,0.295165 -1.89155,0.295166 0.147584,0.945774 0.147583,0.945777 0.472885,-0.07379 c 0.420344,-0.06559 0.46469,-0.126323 0.399096,-0.54668 -0.06559,-0.420348 -0.02127,-0.481088 0.399097,-0.54668 0.420343,-0.06559 0.481086,-0.02127 0.54668,0.399097 0.06559,0.420346 0.02126,0.481085 -0.399097,0.546678 -0.420345,0.06559 -0.464691,0.126324 -0.399097,0.546681 0.06559,0.420342 0.126322,0.464687 0.54668,0.399093 l 0.472888,-0.07379 0.147583,0.945778 0.147583,0.945773 0.472885,-0.07379 c 0.420345,-0.06559 0.481085,-0.02127 0.546679,0.399097 0.06559,0.420342 0.126322,0.464692 0.546681,0.399097 0.420342,-0.06559 0.464687,-0.126322 0.399093,-0.546679 l -0.07379,-0.472889 0.945777,-0.147583 0.945774,-0.147583 0.07379,0.472888 0.07379,0.47289 0.945776,-0.147584 0.945775,-0.147583 0.07379,0.472883 0.07379,0.472891 -1.418662,0.221375 -1.41866,0.221373 0.07379,0.47289 c 0.06559,0.420343 0.126321,0.464687 0.546675,0.399092 0.420347,-0.06559 0.481088,-0.02127 0.546681,0.399099 0.06559,0.420343 0.02126,0.48108 -0.399098,0.546675 -0.420343,0.06559 -0.481081,0.02126 -0.546675,-0.399093 -0.06559,-0.420348 -0.126324,-0.464692 -0.546681,-0.399098 -0.420346,0.06559 -0.464691,0.126323 -0.399097,0.546682 0.06559,0.420343 0.02126,0.48108 -0.399094,0.546674 l -0.472888,0.07379 -0.147583,-0.945774 -0.147583,-0.945773 -0.472887,0.07379 c -0.420342,0.06559 -0.481082,0.02126 -0.546677,-0.399099 -0.06559,-0.420344 -0.126322,-0.464686 -0.546679,-0.399092 -0.420346,0.06559 -0.481086,0.02127 -0.54668,-0.399097 -0.06559,-0.420346 -0.126323,-0.464691 -0.54668,-0.399097 l -0.472884,0.07379 0.221373,1.418662 0.221375,1.418662 0.472885,-0.07379 c 0.420345,-0.06559 0.481085,-0.02126 0.546679,0.399098 l 0.07379,0.472884 -1.891549,0.295166 -1.891551,0.295166 z m 19.713685,-4.045009 c -0.06559,-0.42035 -0.02127,-0.481088 0.399097,-0.546682 0.420346,-0.06559 0.464691,-0.126322 0.399096,-0.546681 -0.06559,-0.420344 -0.126322,-0.464686 -0.54668,-0.399092 -0.420345,0.06559 -0.481084,0.02127 -0.546679,-0.399097 -0.06559,-0.420346 -0.126322,-0.464691 -0.546677,-0.399097 l -0.472887,0.07379 -0.147583,-0.945772 -0.147583,-0.945778 -0.472889,0.07379 -0.472889,0.07379 0.221374,1.418662 0.221375,1.418665 -0.945772,0.147582 -0.945774,0.147583 -0.07379,-0.472888 c -0.06559,-0.420346 -0.126322,-0.464692 -0.54668,-0.399097 l -0.472888,0.07379 0.147584,0.945777 0.147582,0.945774 1.418663,-0.221375 1.41866,-0.221374 -0.07379,-0.472889 -0.07379,-0.472884 0.945777,-0.147583 0.945773,-0.147584 0.07379,0.472884 c 0.06559,0.420351 0.02127,0.481088 -0.399094,0.546682 -0.420345,0.06559 -0.46469,0.126322 -0.399096,0.54668 0.06559,0.420344 0.126322,0.464687 0.54668,0.399093 0.420342,-0.06559 0.464687,-0.126322 0.399093,-0.546675 z M 43.82541,71.998236 c -0.06559,-0.420346 -0.126323,-0.464692 -0.546678,-0.399097 -0.420346,0.06559 -0.46469,0.126321 -0.399097,0.546679 0.06559,0.420342 0.126324,0.464692 0.546681,0.399097 0.420342,-0.06559 0.464688,-0.126321 0.399094,-0.546679 z m 1.596383,-2.186716 c -0.06559,-0.420346 -0.126323,-0.464691 -0.546679,-0.399098 -0.420343,0.06559 -0.464689,0.126322 -0.399094,0.546681 0.06559,0.420346 0.126322,0.464692 0.546677,0.399098 0.420345,-0.06559 0.46469,-0.126324 0.399096,-0.546681 z m 13.093262,-3.011934 -0.221375,-1.418666 -1.418661,0.221374 -1.418661,0.221376 0.221375,1.418664 0.221374,1.418663 1.41866,-0.221375 1.418663,-0.221374 z m -1.89155,0.295166 c -0.06559,-0.420346 -0.02126,-0.481085 0.399096,-0.54668 0.420343,-0.06559 0.481088,-0.02127 0.546681,0.399096 0.06559,0.420344 0.02126,0.481082 -0.399098,0.546676 -0.420346,0.06559 -0.481085,0.02126 -0.546679,-0.399092 z m -13.388427,1.120384 -0.07379,-0.472889 -1.89155,0.295166 -1.891546,0.295166 -0.07379,-0.472885 -0.07379,-0.472889 0.945774,-0.147583 0.945773,-0.147581 -0.07379,-0.472889 -0.07379,-0.472885 -0.945775,0.147583 -0.945772,0.147583 0.07379,0.472884 0.07379,0.472888 -0.945775,0.147583 -0.945774,0.147583 0.07379,0.472889 0.07379,0.472885 0.945773,-0.147583 0.945777,-0.147583 0.07379,0.472888 0.07379,0.472888 1.891545,-0.295165 1.891551,-0.295166 z m 6.620422,-1.03308 -0.07379,-0.472888 0.945777,-0.147585 0.945773,-0.147582 0.07379,0.47289 c 0.06559,0.420344 0.126323,0.464689 0.546679,0.399096 0.420342,-0.06559 0.464688,-0.126322 0.399093,-0.54668 -0.06559,-0.420346 -0.02127,-0.481086 0.399098,-0.546681 0.420345,-0.06559 0.46469,-0.126321 0.399096,-0.546675 -0.06559,-0.420347 -0.02127,-0.481088 0.399098,-0.54668 0.420342,-0.06559 0.464687,-0.126322 0.399093,-0.54668 -0.06559,-0.420342 -0.02126,-0.481081 0.399097,-0.546676 0.420345,-0.06559 0.464691,-0.126322 0.399097,-0.54668 -0.06559,-0.420346 -0.126323,-0.464692 -0.546681,-0.399097 -0.420346,0.06559 -0.481084,0.02126 -0.546679,-0.399097 l -0.07379,-0.472884 0.945776,-0.147584 0.945774,-0.147581 0.07379,0.472882 c 0.06559,0.420347 0.126322,0.464693 0.546679,0.399098 0.420343,-0.06559 0.464692,-0.126322 0.399098,-0.54668 -0.06559,-0.420342 -0.02126,-0.481082 0.399094,-0.546675 0.420346,-0.06559 0.464691,-0.126323 0.399096,-0.546681 -0.06559,-0.420346 -0.02127,-0.481086 0.399098,-0.54668 l 0.472883,-0.07379 0.147585,0.945777 0.147581,0.945774 0.945778,-0.147584 0.945772,-0.147582 -0.07379,-0.47289 c -0.06559,-0.420339 -0.126322,-0.464683 -0.546675,-0.399089 l -0.472889,0.07379 -0.147583,-0.945778 -0.147584,-0.945772 -0.945776,0.147583 -0.945773,0.147583 -0.07379,-0.472888 c -0.06559,-0.420343 -0.02126,-0.481087 0.399097,-0.546681 0.420342,-0.06559 0.464687,-0.126322 0.399093,-0.546677 -0.06559,-0.420344 -0.02126,-0.481083 0.399098,-0.546678 l 0.472888,-0.07379 -0.147583,-0.945773 -0.147583,-0.945778 -0.945778,0.147583 -0.945771,0.147583 -0.07379,-0.472884 c -0.06559,-0.420346 -0.126323,-0.464691 -0.546681,-0.399097 -0.420342,0.06559 -0.464687,0.126323 -0.399094,0.54668 0.06559,0.420343 0.02126,0.481081 -0.399098,0.546676 -0.420344,0.06559 -0.481085,0.02127 -0.546677,-0.399092 -0.06559,-0.420347 -0.126324,-0.464691 -0.546681,-0.399098 l -0.472885,0.07379 -0.147583,-0.945777 -0.147583,-0.945773 0.945773,-0.147583 0.945778,-0.147583 -0.07379,-0.472888 c -0.06559,-0.420342 -0.02126,-0.481081 0.399095,-0.546675 0.420344,-0.06559 0.481084,-0.02126 0.546678,0.399093 0.06559,0.420345 0.126323,0.464691 0.54668,0.399096 0.420342,-0.06559 0.464688,-0.126322 0.399093,-0.546679 -0.06559,-0.420343 -0.02126,-0.481082 0.399098,-0.546676 0.420345,-0.06559 0.464691,-0.126323 0.399096,-0.54668 l -0.07379,-0.472889 0.945774,-0.147582 0.945776,-0.147584 -0.07379,-0.472888 -0.07379,-0.472885 -0.945777,0.147583 -0.945773,0.147584 -0.07379,-0.472889 c -0.06559,-0.420347 -0.02126,-0.481086 0.399097,-0.54668 0.420342,-0.06559 0.464688,-0.126322 0.399094,-0.546676 -0.06559,-0.420347 -0.126323,-0.464691 -0.546677,-0.399097 -0.420345,0.06559 -0.464691,0.126322 -0.399097,0.546679 0.06559,0.420343 0.02126,0.481081 -0.399096,0.546677 -0.420346,0.06559 -0.481086,0.02126 -0.54668,-0.399093 -0.06559,-0.420347 -0.126323,-0.464691 -0.546677,-0.399097 -0.420346,0.06559 -0.481085,0.02127 -0.54668,-0.399097 -0.06559,-0.420343 -0.126322,-0.464692 -0.546679,-0.399098 -0.420342,0.06559 -0.464688,0.126322 -0.399094,0.54668 l 0.07379,0.472889 -0.945777,0.147584 -0.945773,0.147581 0.07379,0.472889 c 0.06559,0.420343 0.126323,0.464688 0.546676,0.399094 0.420347,-0.06559 0.481085,-0.02126 0.546681,0.399097 0.06559,0.420346 0.02126,0.481085 -0.399097,0.546679 -0.420343,0.06559 -0.464688,0.126322 -0.399093,0.546675 l 0.07379,0.47289 -1.418662,0.221374 -1.418665,0.221375 -0.07379,-0.472889 c -0.06559,-0.420342 -0.126321,-0.464687 -0.546675,-0.399093 l -0.472889,0.07379 -0.147583,-0.945777 -0.147583,-0.945772 -0.945773,0.147582 -0.945776,0.147583 -0.147583,-0.945779 -0.147582,-0.945774 -0.472889,0.07379 c -0.420343,0.06559 -0.481082,0.02126 -0.546677,-0.399097 -0.06559,-0.420343 -0.126322,-0.464687 -0.546679,-0.399093 -0.420346,0.06559 -0.464692,0.126322 -0.399097,0.546676 0.06559,0.420346 0.126322,0.464691 0.546679,0.399096 0.420346,-0.06559 0.481087,-0.02127 0.546681,0.399099 0.06559,0.42034 0.02126,0.481079 -0.399098,0.546675 -0.420347,0.06559 -0.464691,0.126321 -0.399097,0.546679 l 0.07379,0.472889 0.945778,-0.147583 0.945774,-0.147583 0.295166,1.891549 0.295165,1.891552 0.472888,-0.07379 c 0.420347,-0.06559 0.481086,-0.02127 0.546679,0.399093 l 0.07379,0.472888 -0.945776,0.147582 -0.945773,0.147584 0.147582,0.945772 0.147584,0.945778 -1.418662,0.221374 -1.418661,0.221375 -0.07379,-0.472889 -0.07379,-0.47289 0.945771,-0.147582 0.945774,-0.147582 -0.07379,-0.472884 -0.07379,-0.472889 -1.41866,0.221375 -1.418663,0.221374 0.07379,0.472888 c 0.06559,0.420342 0.02126,0.481081 -0.399098,0.546676 l -0.472885,0.07379 -0.147581,-0.945773 -0.147584,-0.945773 -1.89155,0.295166 -1.891549,0.295167 0.07379,0.472884 c 0.06559,0.420345 0.02127,0.481085 -0.399097,0.54668 l -0.472884,0.07379 -0.221375,-1.41866 -0.221374,-1.418663 -0.472888,0.07379 -0.472888,0.07379 -0.147584,-0.945777 -0.147582,-0.945772 -0.472888,0.07379 c -0.420344,0.06559 -0.481082,0.02126 -0.546677,-0.399098 -0.06559,-0.420341 -0.126322,-0.464691 -0.546681,-0.399097 -0.420345,0.06559 -0.481085,0.02127 -0.546678,-0.399092 l -0.07379,-0.47289 -1.418661,0.221376 -1.418662,0.221374 0.07379,0.472889 0.07379,0.472884 -0.945773,0.147582 -0.945776,0.147583 0.07379,0.472889 0.07379,0.472889 0.945775,-0.147583 0.945774,-0.147583 0.07379,0.472888 0.07379,0.472885 -0.945773,0.147582 -0.945776,0.147583 0.07379,0.47289 0.07379,0.472887 0.945776,-0.147583 0.945773,-0.147582 0.07379,0.472884 c 0.06559,0.420346 0.126331,0.464691 0.546681,0.399097 0.420344,-0.06559 0.481084,-0.02127 0.546677,0.399098 0.06559,0.420341 0.02126,0.481087 -0.399094,0.54668 -0.420345,0.06559 -0.464691,0.126321 -0.399097,0.546675 0.06559,0.420346 0.12633,0.464691 0.54668,0.399096 0.420343,-0.06559 0.481083,-0.02126 0.546679,0.399098 l 0.07379,0.472884 -0.945776,0.147583 -0.945772,0.147582 -0.147584,-0.945772 -0.147583,-0.945772 -0.472887,0.07379 c -0.420344,0.06559 -0.481085,0.02126 -0.546679,-0.399097 -0.06559,-0.420347 -0.126331,-0.464692 -0.546679,-0.399098 -0.420343,0.06559 -0.464689,0.126322 -0.399096,0.54668 0.06559,0.420341 0.126331,0.46469 0.54668,0.399097 l 0.472886,-0.07379 0.147583,0.945772 0.147583,0.945774 -0.945774,0.147582 -0.945775,0.147583 0.147583,0.945777 0.147583,0.945773 0.472886,-0.07379 c 0.420345,-0.06559 0.481086,-0.02127 0.54668,0.399097 l 0.07379,0.472888 0.945774,-0.147583 0.945775,-0.147582 0.07379,0.472885 c 0.06559,0.420346 0.12633,0.46469 0.546679,0.399097 0.420345,-0.06559 0.481085,-0.02127 0.546678,0.399097 l 0.07379,0.472884 0.945774,-0.147583 0.945776,-0.147582 0.07379,0.472887 0.07379,0.472889 -0.945776,0.147584 -0.945774,0.147582 0.07379,0.472889 0.07379,0.472884 0.945775,-0.147584 0.945775,-0.147582 0.07379,0.472889 c 0.06559,0.420345 0.126331,0.46469 0.54668,0.399097 l 0.472885,-0.07379 -0.147584,-0.945778 -0.147582,-0.945773 0.472887,-0.07379 c 0.420347,-0.06559 0.464693,-0.126323 0.399098,-0.54668 l -0.07379,-0.472888 -0.945776,0.147583 -0.945773,0.147583 -0.07379,-0.472885 c -0.06559,-0.420347 -0.02126,-0.481087 0.399098,-0.54668 0.420342,-0.06559 0.464686,-0.126322 0.399092,-0.546681 -0.06559,-0.420341 -0.126321,-0.464686 -0.546676,-0.399092 l -0.472889,0.07379 -0.147583,-0.945776 -0.147582,-0.945773 0.472889,-0.07379 c 0.420342,-0.06559 0.464688,-0.126322 0.399092,-0.546681 -0.06559,-0.420346 -0.126321,-0.464692 -0.546676,-0.399098 -0.420346,0.06559 -0.481087,0.02127 -0.546679,-0.399092 -0.06559,-0.420346 -0.02126,-0.481088 0.399097,-0.54668 0.420342,-0.06559 0.464687,-0.126322 0.399093,-0.546679 -0.06559,-0.420343 -0.02126,-0.481081 0.399097,-0.546677 0.420347,-0.06559 0.464692,-0.126321 0.399097,-0.546679 -0.06559,-0.420347 -0.02127,-0.481087 0.399093,-0.54668 l 0.472888,-0.07379 0.295166,1.891549 0.295166,1.891552 1.891549,-0.295166 1.89155,-0.295166 0.07379,0.472887 0.07379,0.472885 -1.418661,0.221374 -1.418661,0.221374 0.07379,0.472889 c 0.06559,0.420346 0.02126,0.481085 -0.399096,0.54668 -0.420347,0.06559 -0.481086,0.02126 -0.546681,-0.399097 -0.06559,-0.420346 -0.126322,-0.464691 -0.546679,-0.399097 -0.420343,0.06559 -0.464688,0.126322 -0.399093,0.54668 0.06559,0.420346 0.126321,0.464691 0.546676,0.399098 0.420345,-0.06559 0.481086,-0.02127 0.546679,0.399093 0.06559,0.420345 0.126323,0.464691 0.546681,0.399096 0.420345,-0.06559 0.46469,-0.126322 0.399096,-0.54668 l -0.07379,-0.472885 1.891546,-0.295165 1.89155,-0.295166 -0.07379,-0.472889 c -0.06559,-0.420345 -0.02126,-0.481084 0.399097,-0.546679 0.420346,-0.06559 0.481087,-0.02127 0.54668,0.399096 l 0.07379,0.472889 0.945772,-0.147583 0.945777,-0.147583 0.07379,0.472885 c 0.06559,0.420346 0.126323,0.464691 0.546676,0.399097 0.420346,-0.06559 0.481086,-0.02127 0.546681,0.399097 0.06559,0.420342 0.126321,0.464687 0.546679,0.399093 0.420342,-0.06559 0.481082,-0.02126 0.546676,0.399097 0.06559,0.420346 0.126324,0.464691 0.54668,0.399098 0.420346,-0.06559 0.481086,-0.02127 0.546681,0.399096 0.06559,0.420341 0.126321,0.464687 0.546675,0.399093 0.420347,-0.06559 0.481087,-0.02127 0.54668,0.399097 0.06559,0.420346 0.126324,0.464692 0.546681,0.399097 0.420345,-0.06559 0.481085,-0.02127 0.546678,0.399092 0.06559,0.420346 0.02127,0.481087 -0.399096,0.546681 -0.420346,0.06559 -0.464691,0.126322 -0.399096,0.54668 0.06559,0.420346 0.126322,0.464691 0.54668,0.399096 0.420345,-0.06559 0.481085,-0.02127 0.546678,0.399094 0.06559,0.420346 0.02127,0.481086 -0.399097,0.546679 -0.420345,0.06559 -0.46469,0.126322 -0.399096,0.546681 0.06559,0.420342 0.02127,0.481083 -0.399098,0.546676 -0.420342,0.06559 -0.464687,0.126322 -0.399092,0.54668 0.06559,0.420345 0.126322,0.464691 0.546676,0.399097 0.420346,-0.06559 0.464692,-0.126322 0.399097,-0.54668 z m 1.596384,-2.186716 c -0.06559,-0.420342 -0.126322,-0.464688 -0.54668,-0.399093 -0.420343,0.06559 -0.481082,0.02126 -0.546677,-0.399098 -0.06559,-0.420345 -0.02126,-0.481084 0.399094,-0.546679 0.420346,-0.06559 0.481086,-0.02126 0.54668,0.399096 0.06559,0.420347 0.126322,0.464691 0.546681,0.399098 l 0.472884,-0.07379 -0.147584,-0.945777 -0.147582,-0.945773 0.472888,-0.07379 c 0.420346,-0.06559 0.464691,-0.126321 0.399097,-0.54668 -0.06559,-0.420347 -0.02127,-0.481087 0.399097,-0.546681 0.420341,-0.06559 0.464687,-0.126322 0.399093,-0.546674 -0.06559,-0.420346 -0.02127,-0.481087 0.399097,-0.546681 0.420345,-0.06559 0.464691,-0.126322 0.399097,-0.54668 -0.06559,-0.420342 -0.126322,-0.464691 -0.54668,-0.399097 -0.420347,0.06559 -0.481086,0.02127 -0.54668,-0.399093 l -0.07379,-0.472888 -1.418662,0.221375 -1.418661,0.221374 -0.07379,-0.472889 -0.07379,-0.472884 1.418662,-0.221375 1.418661,-0.221374 -0.07379,-0.472889 -0.07379,-0.472889 -0.945773,0.147584 -0.945777,0.147583 -0.147583,-0.945773 -0.147583,-0.945777 0.472888,-0.07379 c 0.420346,-0.06559 0.464691,-0.126322 0.399097,-0.546675 -0.06559,-0.420347 -0.126321,-0.464692 -0.546679,-0.399098 -0.420343,0.06559 -0.481087,0.02127 -0.546681,-0.399096 l -0.07379,-0.472885 -0.945772,0.147583 -0.945773,0.147583 -0.147583,-0.945777 -0.147584,-0.945773 0.472886,-0.07379 c 0.420345,-0.06559 0.481086,-0.02127 0.546679,0.399093 0.06559,0.420347 0.126322,0.464692 0.54668,0.399097 0.420342,-0.06559 0.481082,-0.02126 0.546675,0.399099 0.06559,0.420341 0.126323,0.464691 0.546681,0.399095 0.420346,-0.06559 0.481086,-0.02127 0.546679,0.399093 0.06559,0.420346 0.126322,0.464692 0.54668,0.399097 0.420343,-0.06559 0.464688,-0.126321 0.399093,-0.546678 -0.06559,-0.420344 -0.02126,-0.481083 0.399098,-0.546677 0.420346,-0.06559 0.464691,-0.126323 0.399097,-0.54668 -0.06559,-0.420347 -0.02127,-0.481086 0.399094,-0.54668 0.420345,-0.06559 0.46469,-0.126322 0.399096,-0.546679 -0.06559,-0.420343 -0.02126,-0.481083 0.399095,-0.546677 l 0.47289,-0.07379 -0.147583,-0.945777 -0.147583,-0.945772 0.472886,-0.07379 c 0.420345,-0.06559 0.481086,-0.02127 0.546679,0.399097 0.06559,0.420343 0.126321,0.464687 0.546679,0.399094 0.420342,-0.06559 0.481082,-0.02126 0.546677,0.399097 0.06559,0.420346 0.126322,0.464691 0.546679,0.399095 0.420346,-0.06559 0.481086,-0.02126 0.54668,0.399094 0.06559,0.420346 0.02127,0.481087 -0.399096,0.54668 -0.420346,0.06559 -0.464692,0.126324 -0.399097,0.546681 0.06559,0.420341 0.02127,0.481086 -0.399093,0.546679 -0.420346,0.06559 -0.481086,0.02127 -0.54668,-0.399096 -0.06559,-0.420348 -0.126322,-0.464692 -0.546679,-0.399097 -0.420344,0.06559 -0.464689,0.126321 -0.399094,0.546679 l 0.07379,0.472889 -0.945777,0.147583 -0.945772,0.147583 0.07379,0.472884 c 0.06559,0.420345 0.02126,0.481085 -0.399097,0.54668 -0.420347,0.06559 -0.464692,0.126322 -0.399097,0.546679 0.06559,0.420343 0.02126,0.481082 -0.399093,0.546676 -0.420347,0.06559 -0.464692,0.126322 -0.399098,0.54668 l 0.07379,0.472889 0.945774,-0.147582 0.945776,-0.147584 0.147583,0.945772 0.147584,0.945778 0.472883,-0.07379 c 0.420346,-0.06559 0.481086,-0.02127 0.546679,0.399093 0.06559,0.420345 0.02127,0.481086 -0.399095,0.54668 -0.420344,0.06559 -0.464688,0.126322 -0.399094,0.546679 l 0.07379,0.472885 0.945773,-0.147583 0.945777,-0.147583 -0.221374,-1.418662 -0.221374,-1.418661 0.472884,-0.07379 c 0.420346,-0.06559 0.481086,-0.02127 0.546681,0.399096 0.06559,0.420348 0.126321,0.464692 0.546678,0.399097 0.420343,-0.06559 0.481084,-0.02127 0.546676,0.399094 0.06559,0.420347 0.02127,0.481087 -0.399093,0.54668 -0.420345,0.06559 -0.464691,0.126322 -0.399096,0.546679 0.06559,0.420343 0.02127,0.481083 -0.399097,0.546677 -0.420343,0.06559 -0.464689,0.126321 -0.399093,0.54668 0.06559,0.420344 0.126321,0.46469 0.546676,0.399096 0.420346,-0.06559 0.481087,-0.02127 0.54668,0.399097 0.06559,0.420342 0.02126,0.481082 -0.399097,0.546676 -0.420343,0.06559 -0.464688,0.126323 -0.399094,0.546681 0.06559,0.420345 0.02127,0.481085 -0.399097,0.54668 -0.420345,0.06559 -0.481085,0.02126 -0.546679,-0.399097 -0.06559,-0.420347 -0.02127,-0.481087 0.399096,-0.546682 0.420342,-0.06559 0.464692,-0.126321 0.399097,-0.546675 l -0.07379,-0.472889 -0.945777,0.147584 -0.945773,0.147582 0.07379,0.472889 c 0.06559,0.420343 0.02126,0.481081 -0.399098,0.546676 -0.420347,0.06559 -0.46469,0.126322 -0.399096,0.54668 0.06559,0.420347 0.02127,0.481088 -0.399093,0.54668 -0.420346,0.06559 -0.464692,0.126322 -0.399098,0.546675 0.06559,0.420347 0.126323,0.464692 0.546681,0.399098 0.420341,-0.06559 0.481081,-0.02126 0.546676,0.399097 l 0.07379,0.472888 -0.945774,0.147583 -0.945776,0.147584 0.07379,0.472884 c 0.06559,0.420346 0.02126,0.481084 -0.399093,0.546678 -0.420346,0.06559 -0.481087,0.02127 -0.54668,-0.399095 z m -1.388523,-2.689737 c -0.06559,-0.420346 -0.126322,-0.464692 -0.546679,-0.399097 -0.420347,0.06559 -0.481085,0.02126 -0.54668,-0.399092 -0.06559,-0.420347 -0.126321,-0.464693 -0.546679,-0.399097 -0.420343,0.06559 -0.481083,0.02126 -0.546677,-0.399098 -0.06559,-0.420343 -0.126323,-0.464691 -0.54668,-0.399097 -0.420347,0.06559 -0.481086,0.02127 -0.54668,-0.399093 -0.06559,-0.420346 -0.126322,-0.464691 -0.546675,-0.399097 l -0.472889,0.07379 -0.147583,-0.945773 -0.147584,-0.945778 1.418662,-0.221374 1.418663,-0.221374 0.07379,0.472888 0.07379,0.472889 -0.945775,0.147582 -0.945775,0.147585 0.07379,0.472883 c 0.06559,0.420346 0.126321,0.464692 0.546678,0.399097 0.420347,-0.06559 0.481087,-0.02126 0.546682,0.399097 0.06559,0.420342 0.12632,0.464688 0.546675,0.399093 0.420346,-0.06559 0.481087,-0.02127 0.546681,0.399097 0.06559,0.420346 0.126321,0.464691 0.546679,0.399098 0.420346,-0.06559 0.481084,-0.02126 0.54668,0.399097 0.06559,0.420341 0.126322,0.464685 0.546677,0.399093 0.420344,-0.06559 0.481085,-0.02127 0.546678,0.399097 0.06559,0.420346 0.02127,0.481086 -0.399095,0.546679 -0.420343,0.06559 -0.481084,0.02127 -0.546678,-0.399097 z m 1.596381,-2.186714 c -0.06559,-0.420344 -0.02127,-0.481087 0.399097,-0.546682 0.420346,-0.06559 0.481086,-0.02126 0.546679,0.399098 0.06559,0.420345 0.02127,0.481085 -0.399096,0.54668 -0.420343,0.06559 -0.481086,0.02126 -0.54668,-0.399096 z m -19.210658,1.060107 c -0.06559,-0.420343 -0.12633,-0.464686 -0.546677,-0.399094 -0.420344,0.06559 -0.481084,0.02127 -0.546679,-0.399097 l -0.07379,-0.472889 -0.945775,0.147584 -0.945775,0.147583 -0.07379,-0.472884 c -0.06559,-0.420347 -0.02125,-0.481087 0.399095,-0.54668 0.420344,-0.06559 0.464691,-0.126322 0.399096,-0.546681 -0.06559,-0.420345 -0.02126,-0.481087 0.399095,-0.54668 l 0.472889,-0.07379 0.147583,0.945779 0.147583,0.945771 0.472887,-0.07379 c 0.420345,-0.06559 0.464689,-0.126322 0.399095,-0.546676 -0.06559,-0.420347 -0.02126,-0.481087 0.399097,-0.546679 0.420343,-0.06559 0.481084,-0.02127 0.546678,0.399096 0.06559,0.420342 0.02125,0.481082 -0.399095,0.546675 -0.420345,0.06559 -0.464691,0.126324 -0.399098,0.54668 l 0.07379,0.472889 0.945776,-0.147582 0.945774,-0.147584 0.07379,0.472885 0.07379,0.472889 -0.945775,0.147582 -0.945775,0.147584 z m 10.108358,-3.514959 -0.07379,-0.472888 0.945772,-0.147582 0.945778,-0.147583 0.07379,0.472888 0.07379,0.472884 -0.945776,0.147583 -0.945773,0.147583 z m -2.039133,-0.650611 c -0.06559,-0.420346 -0.126322,-0.464692 -0.546681,-0.399096 -0.420346,0.06559 -0.481086,0.02127 -0.546679,-0.399092 l -0.07379,-0.472889 0.945777,-0.147583 0.945773,-0.147584 0.147583,0.945773 0.147583,0.945777 -0.472886,0.07379 c -0.420346,0.06559 -0.481086,0.02127 -0.546679,-0.399098 z m 8.511972,-1.328246 c -0.06559,-0.420347 -0.02127,-0.481087 0.399094,-0.54668 0.420346,-0.06559 0.481085,-0.02126 0.546679,0.399098 0.06559,0.420345 0.02127,0.481086 -0.399096,0.54668 -0.420342,0.06559 -0.481083,0.02127 -0.546677,-0.399098 z M 32.361779,54.410991 c -0.06559,-0.420343 -0.12633,-0.464687 -0.546678,-0.399093 -0.420345,0.06559 -0.481085,0.02126 -0.546679,-0.399098 -0.06559,-0.420345 -0.02126,-0.481087 0.399096,-0.54668 0.420345,-0.06559 0.481085,-0.02126 0.546678,0.399097 0.06559,0.420347 0.126331,0.464689 0.54668,0.399097 l 0.472888,-0.07379 -0.147584,-0.945776 -0.147582,-0.945773 0.472888,-0.07379 0.472885,-0.07379 0.147582,0.945772 0.147583,0.945777 -0.472885,0.07379 c -0.420344,0.06559 -0.46469,0.126322 -0.399097,0.546676 0.06559,0.420346 0.02126,0.481088 -0.399096,0.546681 -0.420343,0.06559 -0.481085,0.02127 -0.546679,-0.399097 z m -1.388523,-2.689744 c -0.06559,-0.420341 -0.02126,-0.481087 0.399096,-0.54668 0.420344,-0.06559 0.481084,-0.02126 0.546679,0.399097 0.06559,0.420347 0.02126,0.481089 -0.399095,0.546681 -0.420345,0.06559 -0.481087,0.02127 -0.54668,-0.399098 z m 5.420024,16.108308 -0.147582,-0.945773 0.945776,-0.147583 0.945773,-0.147583 -0.147584,-0.945776 -0.147581,-0.945773 0.472888,-0.07379 c 0.420345,-0.06559 0.481086,-0.02127 0.54668,0.399092 l 0.07379,0.472889 0.945772,-0.147583 0.945774,-0.147582 -0.07379,-0.472888 c -0.06559,-0.420343 -0.126322,-0.464688 -0.546676,-0.399094 l -0.472889,0.07379 -0.221374,-1.418662 -0.221375,-1.418665 0.472889,-0.07379 0.472884,-0.07379 0.147584,0.945777 0.147581,0.945772 0.472889,-0.07379 0.472889,-0.07379 -0.147583,-0.945772 -0.147583,-0.945777 0.472888,-0.07379 c 0.420342,-0.06559 0.464688,-0.126322 0.399094,-0.546675 -0.06559,-0.420347 -0.126322,-0.464691 -0.546676,-0.399097 -0.420347,0.06559 -0.464692,0.126322 -0.399097,0.546679 0.06559,0.420343 0.02126,0.481082 -0.399098,0.546677 -0.420346,0.06559 -0.481086,0.02127 -0.546679,-0.399094 -0.06559,-0.420345 -0.126322,-0.46469 -0.546676,-0.399096 -0.420347,0.06559 -0.464692,0.126321 -0.399097,0.546679 l 0.07379,0.472885 -0.945773,0.147583 -0.945776,0.147583 0.07379,0.472889 c 0.06559,0.420345 0.126322,0.46469 0.546681,0.399096 0.420344,-0.06559 0.481085,-0.02127 0.546679,0.399097 l 0.07379,0.472885 -0.945777,0.147582 -0.945772,0.147583 0.147583,0.945777 0.147582,0.945773 -0.945777,0.147583 -0.945773,0.147583 0.07379,0.472888 0.07379,0.472889 -0.945775,0.147583 -0.945775,0.147582 0.07379,0.472885 0.07379,0.472888 0.945774,-0.147583 0.945776,-0.147583 0.07379,0.472889 c 0.06559,0.420343 0.126331,0.464686 0.54668,0.399093 l 0.472885,-0.07379 z m 7.418617,-2.126437 -0.147583,-0.945776 -0.945778,0.147583 -0.945772,0.147582 0.147583,0.945778 0.147583,0.945772 0.945773,-0.147582 0.945776,-0.147584 z m 16.56768,-11.788936 -0.07379,-0.472889 -0.945777,0.147583 -0.945774,0.147583 0.07379,0.472889 0.07379,0.47289 0.945773,-0.147584 0.945777,-0.147583 z m -20.525391,-1.156743 -0.147583,-0.945777 0.472888,-0.07379 c 0.420343,-0.06559 0.464688,-0.126322 0.399094,-0.546675 -0.06559,-0.420347 -0.126321,-0.464692 -0.546677,-0.399098 -0.420345,0.06559 -0.464691,0.126322 -0.399096,0.54668 l 0.07379,0.472884 -0.945777,0.147583 -0.945774,0.147583 -0.07379,-0.472885 c -0.06559,-0.420345 -0.126321,-0.46469 -0.546678,-0.399096 -0.420343,0.06559 -0.464689,0.126322 -0.399094,0.546679 0.06559,0.420343 0.126322,0.464688 0.546676,0.399094 l 0.472887,-0.07379 0.147584,0.945778 0.147583,0.945773 0.945773,-0.147582 0.945776,-0.147584 z m 6.546631,-1.505969 c -0.06559,-0.420345 -0.126322,-0.464691 -0.54668,-0.399096 -0.420347,0.06559 -0.464691,0.126322 -0.399096,0.54668 0.06559,0.420346 0.126321,0.464691 0.546679,0.399096 0.420347,-0.06559 0.464692,-0.126322 0.399097,-0.54668 z m 5.527064,-1.83127 c -0.06559,-0.420346 -0.126323,-0.46469 -0.546676,-0.399096 -0.420347,0.06559 -0.481087,0.02127 -0.546682,-0.399099 l -0.07379,-0.472887 0.945773,-0.147583 0.945777,-0.147583 -0.07379,-0.472884 -0.07379,-0.47289 -0.945777,0.147583 -0.945774,0.147584 0.07379,0.472889 c 0.06559,0.420341 0.02126,0.481081 -0.399096,0.546674 l -0.472888,0.07379 0.147583,0.945779 0.147582,0.945772 0.945778,-0.147583 0.945773,-0.147583 z m -0.683857,20.451596 c -0.06559,-0.420343 -0.02126,-0.481082 0.399095,-0.546676 0.420346,-0.06559 0.481086,-0.02127 0.54668,0.399092 0.06559,0.420347 0.02126,0.481086 -0.399098,0.546681 -0.420342,0.06559 -0.481082,0.02127 -0.546677,-0.399097 z m -15.038867,-21.873369 -0.221374,-1.418661 0.472885,-0.07379 c 0.420346,-0.06559 0.464691,-0.126321 0.399095,-0.546679 -0.06559,-0.420343 -0.126321,-0.464692 -0.546678,-0.399096 -0.420343,0.06559 -0.481083,0.02126 -0.546676,-0.399095 -0.06559,-0.420347 -0.126323,-0.464692 -0.54668,-0.399096 l -0.472889,0.07379 0.221374,1.418661 0.221375,1.418662 -0.472888,0.07379 -0.472885,0.07379 -0.221374,-1.418661 -0.221374,-1.418662 -0.945777,0.147583 -0.945774,0.147583 -0.07379,-0.472889 c -0.06559,-0.420341 -0.02126,-0.481086 0.399097,-0.546679 0.420341,-0.06559 0.464687,-0.126322 0.399093,-0.546676 -0.06559,-0.420346 -0.126322,-0.464692 -0.546676,-0.399098 -0.420346,0.06559 -0.481086,0.02126 -0.54668,-0.399096 -0.06559,-0.420342 -0.02126,-0.481084 0.399098,-0.546676 0.420342,-0.06559 0.464687,-0.126322 0.399092,-0.54668 -0.06559,-0.420345 -0.02127,-0.481086 0.399098,-0.54668 l 0.472887,-0.07379 0.147584,0.945776 0.147582,0.945773 0.472885,-0.07379 c 0.420346,-0.06559 0.464691,-0.126323 0.399097,-0.546679 l -0.07379,-0.472884 1.418661,-0.221376 1.418662,-0.221374 0.147582,0.945773 0.147582,0.945774 0.472889,-0.07379 c 0.420347,-0.06559 0.464691,-0.126323 0.399098,-0.546676 l -0.07379,-0.47289 0.945774,-0.147582 0.945777,-0.147584 -0.07379,-0.472886 -0.07379,-0.472885 -0.945777,0.147582 -0.945774,0.147583 -0.07379,-0.472887 -0.07379,-0.47289 0.945775,-0.147582 0.945777,-0.147584 0.07379,0.472889 c 0.06559,0.420343 0.126323,0.464691 0.546676,0.399098 0.420345,-0.06559 0.464691,-0.126323 0.399097,-0.546681 l -0.07379,-0.472889 0.945777,-0.147582 0.945773,-0.147582 0.147584,0.945775 0.147581,0.945774 0.945774,-0.147584 0.945776,-0.147583 -0.07379,-0.472887 c -0.06559,-0.420343 -0.126323,-0.464689 -0.546681,-0.399093 -0.420346,0.06559 -0.481085,0.02126 -0.54668,-0.399096 -0.06559,-0.420347 -0.02126,-0.481087 0.399097,-0.546682 0.420346,-0.06559 0.481085,-0.02126 0.546681,0.399098 0.06559,0.420342 0.126322,0.464691 0.546675,0.399097 0.420347,-0.06559 0.481087,-0.02127 0.54668,0.399093 l 0.07379,0.472887 0.945777,-0.147582 0.945772,-0.147583 -0.07379,-0.472889 c -0.06559,-0.420341 -0.02127,-0.481081 0.399098,-0.546676 l 0.472883,-0.07379 0.147583,0.945772 0.147583,0.945774 0.945777,-0.147583 0.945772,-0.147583 -0.07379,-0.472885 c -0.06559,-0.420347 -0.126321,-0.464691 -0.546676,-0.399098 l -0.472888,0.07379 -0.147582,-0.945773 -0.147584,-0.945776 0.945774,-0.147584 0.945777,-0.147583 0.07379,0.47289 c 0.06559,0.420341 0.02127,0.481084 -0.399097,0.546679 -0.420346,0.06559 -0.464691,0.126322 -0.399097,0.546677 0.06559,0.420345 0.126323,0.46469 0.54668,0.399096 l 0.472888,-0.07379 0.221375,1.418661 0.221374,1.418663 -0.472889,0.07379 c -0.420346,0.06559 -0.481085,0.02126 -0.546679,-0.399093 -0.0656,-0.420346 -0.126333,-0.464691 -0.546687,-0.399097 l -0.47289,0.07379 0.221376,1.418662 0.221374,1.418662 -0.472889,0.07379 c -0.420343,0.06559 -0.481086,0.02127 -0.54668,-0.399098 -0.06559,-0.420341 -0.126321,-0.464686 -0.546674,-0.399092 -0.420348,0.06559 -0.464693,0.126322 -0.399098,0.546675 0.06559,0.420346 0.02126,0.481086 -0.399097,0.546681 l -0.472885,0.07379 -0.221375,-1.418662 -0.221373,-1.418661 0.472884,-0.07379 c 0.420346,-0.06559 0.464692,-0.126323 0.399097,-0.546682 l -0.07379,-0.472886 -0.945773,0.147581 -0.945776,0.147584 0.147583,0.945777 0.147583,0.945773 -1.418663,0.221374 -1.418661,0.221375 -0.221374,-1.418662 -0.221375,-1.418661 -0.472888,0.07379 c -0.420341,0.06559 -0.481081,0.02126 -0.546676,-0.399097 -0.06559,-0.420342 -0.126322,-0.464687 -0.546679,-0.399094 l -0.472889,0.07379 0.147583,0.945773 0.147583,0.945772 0.472889,-0.07379 c 0.420342,-0.06559 0.481084,-0.02126 0.546679,0.399096 0.06559,0.420348 0.02127,0.481086 -0.399096,0.546681 -0.420346,0.06559 -0.481086,0.02126 -0.546681,-0.399098 l -0.07379,-0.472888 -0.945773,0.147583 -0.945776,0.147583 0.147582,0.945777 0.147583,0.945773 0.945777,-0.147583 0.945773,-0.147582 0.07379,0.472887 c 0.06559,0.420347 0.126324,0.464693 0.546682,0.399098 0.420341,-0.06559 0.481085,-0.02126 0.546679,0.399092 0.06559,0.420346 0.02126,0.481085 -0.399097,0.546681 -0.420346,0.06559 -0.481085,0.02126 -0.54668,-0.399097 -0.06559,-0.420343 -0.126322,-0.464687 -0.546679,-0.399092 l -0.472885,0.07379 0.147582,0.945771 0.147583,0.945778 -0.472887,0.07379 c -0.420347,0.06559 -0.464692,0.126321 -0.399097,0.546676 0.06559,0.420346 0.02126,0.481085 -0.399094,0.546679 -0.420347,0.06559 -0.481086,0.02126 -0.54668,-0.399096 l -0.07379,-0.472885 -0.945775,0.147583 -0.945774,0.147583 0.07379,0.472885 c 0.06559,0.420344 0.02126,0.481084 -0.399097,0.546679 l -0.472885,0.07379 z m 1.743964,-1.240943 c -0.06559,-0.420342 -0.02126,-0.48108 0.399096,-0.546675 0.420347,-0.06559 0.481087,-0.02127 0.546679,0.399092 0.06559,0.420346 0.126324,0.464692 0.546681,0.399097 l 0.472886,-0.07379 -0.147584,-0.945772 -0.147583,-0.945778 -0.945773,0.147583 -0.945778,0.147583 -0.147582,-0.945773 -0.147584,-0.945776 -0.472884,0.07379 c -0.420346,0.06559 -0.481087,0.02127 -0.546679,-0.399092 -0.06559,-0.420347 -0.126324,-0.464693 -0.546681,-0.399097 l -0.472884,0.07379 0.147583,0.945773 0.147583,0.945777 0.472885,-0.07379 c 0.420346,-0.06559 0.481085,-0.02126 0.546679,0.399096 0.06559,0.420343 0.126323,0.464688 0.54668,0.399094 0.420343,-0.06559 0.481083,-0.02127 0.546676,0.399097 0.06559,0.420346 0.02127,0.481087 -0.399092,0.546679 -0.420347,0.06559 -0.464692,0.126323 -0.399099,0.546675 0.06559,0.420347 0.126323,0.464693 0.546682,0.399099 0.420342,-0.06559 0.464686,-0.126322 0.399093,-0.546682 z M 49.00325,43.094943 c -0.06559,-0.420345 -0.126323,-0.46469 -0.546675,-0.399096 -0.420348,0.06559 -0.464692,0.126322 -0.399098,0.546679 0.06559,0.420343 0.126323,0.464688 0.54668,0.399094 0.420341,-0.06559 0.464686,-0.126322 0.399093,-0.546677 z M 34.669048,44.36291 c -0.06559,-0.420342 -0.126321,-0.46469 -0.546679,-0.399097 -0.420343,0.06559 -0.464688,0.126322 -0.399092,0.54668 0.06559,0.420346 0.126321,0.464691 0.546676,0.399097 0.420344,-0.06559 0.46469,-0.126322 0.399095,-0.54668 z m 10.403523,-1.623412 c -0.06559,-0.420342 -0.126322,-0.464692 -0.54668,-0.399096 -0.420347,0.06559 -0.464691,0.126321 -0.399097,0.546679 0.06559,0.420347 0.126323,0.464692 0.54668,0.399097 0.420346,-0.06559 0.464692,-0.126322 0.399097,-0.54668 z m -3.045185,5.319205 c -0.06559,-0.420344 -0.02127,-0.481083 0.399098,-0.546676 0.420341,-0.06559 0.481085,-0.02126 0.546679,0.399093 0.06559,0.420344 0.02127,0.481085 -0.399097,0.546679 -0.420346,0.06559 -0.481087,0.02127 -0.54668,-0.399096 z m 14.186618,-2.213744 c -0.06559,-0.420343 -0.02127,-0.481082 0.399098,-0.546676 0.420344,-0.06559 0.481085,-0.02127 0.546678,0.399093 0.06559,0.420345 0.02126,0.481085 -0.399096,0.54668 -0.420347,0.06559 -0.481087,0.02127 -0.54668,-0.399097 z m -31.948475,0.141362 -0.51654,-3.31021 3.310211,-0.51654 3.31021,-0.516541 0.516541,3.310212 0.516539,3.310211 -3.31021,0.516541 -3.310211,0.51654 z m 5.674646,-0.885497 -0.368957,-2.364434 -2.364435,0.368958 -2.364437,0.368957 0.368958,2.364434 0.368958,2.364439 2.364435,-0.368957 2.364436,-0.368958 z m -3.783098,0.590332 -0.221374,-1.418662 1.418662,-0.221374 1.418662,-0.221374 0.221375,1.418661 0.221374,1.418662 -1.418662,0.221374 -1.418663,0.221375 z m 6.043606,1.478941 -0.147583,-0.945776 0.472889,-0.07379 0.472884,-0.07379 0.147584,0.945777 0.147582,0.945772 -0.472884,0.07379 -0.472889,0.07379 z m 18.989283,-2.478774 c -0.06559,-0.420341 -0.02126,-0.48108 0.399097,-0.546675 0.420345,-0.06559 0.481086,-0.02127 0.546679,0.399092 0.06559,0.420347 0.02127,0.481087 -0.399098,0.54668 -0.420344,0.06559 -0.481084,0.02127 -0.546678,-0.399097 z m 1.4488,-3.132488 -0.51654,-3.310211 3.310212,-0.51654 3.310211,-0.51654 0.51654,3.310211 0.51654,3.310211 -3.310211,0.516541 -3.310211,0.516539 z m 5.67465,-0.885498 -0.368956,-2.364434 -2.364438,0.368958 -2.364435,0.368957 0.368956,2.364434 0.368957,2.364439 2.364435,-0.368958 2.364439,-0.368957 z m -3.783099,0.590332 -0.221375,-1.418662 1.418662,-0.221374 1.418661,-0.221374 0.221375,1.418661 0.221374,1.418662 -1.418662,0.221375 -1.41866,0.221374 z"
     id="path302" />
  <g
     inkscape:groupmode="layer"
     id="layer4"
     inkscape:label="ActualTaco 1"
     transform="matrix(1.2952363,0,0,1.2952363,-0.61583384,-8.2292691)"
     style="display:none"
     sodipodi:insensitive="true">
    <g
       id="path4179-1"
       class="UnoptimicedTransforms"
       transform="matrix(1.6998613e-4,-1.2755915,0.92748192,2.3378663e-4,-6.5042679,146.15391)"
       style="display:inline">
      <path
         style="color:#000000;fill:#d3831d;fill-opacity:1;stroke-width:0.765;stroke-linecap:round;stroke-linejoin:bevel;-inkscape-stroke:none;paint-order:markers fill stroke"
         d="M 61.650968,88.463118 C 74.908805,85.764893 85.063139,70.791671 85.11891,52.700577 c 2.55e-4,-0.08273 2.55e-4,-0.216858 0,-0.299583 -0.05511,-17.876512 -9.970635,-32.708679 -22.997494,-35.66137 -2.586135,-0.586178 -4.771543,1.619575 -4.771543,4.276819 v 63.549883 c 0,2.39148 1.961598,4.372924 4.301095,3.896792 z"
         id="path4200-7"
         inkscape:path-effect="#path-effect4202-7-9"
         inkscape:original-d="m 57.349873,88.896484 c 15.33696,-1.87e-4 27.769268,-16.272925 27.769268,-36.345703 0,-20.072777 -12.432308,-36.345515 -27.769268,-36.345703 z" />
      <path
         style="color:#000000;fill:#9d160e;fill-opacity:0;stroke-linecap:round;stroke-linejoin:bevel;-inkscape-stroke:none;paint-order:markers fill stroke"
         d="m 57.349609,15.822266 -0.382812,0.382812 v 72.691406 l 0.382812,0.382813 c 7.803751,-9.5e-5 14.857279,-4.144994 19.939453,-10.796875 5.082175,-6.651881 8.212891,-15.816293 8.212891,-25.931641 0,-10.115347 -3.130716,-19.27976 -8.212891,-25.93164 C 72.206888,19.96726 65.15336,15.822361 57.349609,15.822266 Z m 0.382813,0.816406 c 7.377725,0.136189 14.067469,4.053807 18.949219,10.443359 4.968209,6.502717 8.054687,15.51134 8.054687,25.46875 0,9.957411 -3.086478,18.966034 -8.054687,25.46875 -4.88175,6.389552 -11.571494,10.307171 -18.949219,10.44336 z"
         id="path4192-8" />
    </g>
    <g
       inkscape:groupmode="layer"
       id="layer5"
       inkscape:label="TacosFilling"
       transform="translate(1.686999,-4.97768)"
       style="display:inline">
      <g
         inkscape:groupmode="layer"
         id="layer2-8"
         inkscape:label="Filling"
         style="display:inline;fill:#aa0000;fill-opacity:1"
         transform="matrix(0.95230821,-6.3180575,6.3180575,0.95230821,-166.01848,241.23371)">
        <path
           style="fill:#63a745;fill-opacity:1;stroke:#63a745;stroke-width:0.577145;stroke-linecap:round;stroke-linejoin:bevel;stroke-dasharray:none;stroke-opacity:1;paint-order:markers fill stroke"
           d="m 32.277175,29.774842 c 0.128461,-0.875069 0.304752,-1.743114 0.527824,-2.598968 0.105769,-0.405799 0.222821,-0.81095 0.401695,-1.190244 0.178874,-0.379294 0.422909,-0.734074 0.749885,-0.996651 0.246539,-0.197982 0.539968,-0.341128 0.851769,-0.393655 0.3118,-0.05253 0.641721,-0.01165 0.922719,0.133334 0.114342,0.05899 0.22204,0.136561 0.295941,0.241885 0.06129,0.08736 0.09723,0.191502 0.108089,0.297662 0.01085,0.106159 -0.0029,0.214224 -0.03508,0.315982 -0.06428,0.203515 -0.199512,0.378205 -0.354874,0.524538 -0.02771,0.0261 -0.05622,0.05154 -0.0807,0.08068 -0.08463,0.100746 -0.113584,0.235153 -0.159383,0.358501 -0.01835,0.04941 -0.03982,0.09793 -0.05186,0.149251 -0.01204,0.05132 -0.01407,0.106732 0.0061,0.155451 0.01467,0.03552 0.04069,0.06593 0.07235,0.0877 0.03166,0.02178 0.0688,0.03509 0.106842,0.04053 0.07608,0.01088 0.153754,-0.0093 0.223618,-0.04136 0.06986,-0.03204 0.133676,-0.07562 0.199716,-0.11494 0.06604,-0.03932 0.135858,-0.07495 0.211487,-0.08864 0.0698,-0.01264 0.142144,-0.006 0.210826,0.01177 0.06868,0.01775 0.134091,0.04632 0.197691,0.07775 0.143175,0.07073 0.279874,0.157278 0.394136,0.268842 0.114262,0.111564 0.20558,0.249313 0.248577,0.40311 0.02922,0.10453 0.03575,0.214067 0.0359,0.322605 2.11e-4,0.152607 -0.0121,0.306462 -0.05503,0.452906 -0.04293,0.146445 -0.117952,0.285779 -0.22985,0.389546 -0.08455,0.0784 -0.187359,0.134369 -0.292329,0.18208 -0.10497,0.04771 -0.213315,0.08804 -0.316319,0.139861 -0.103003,0.05182 -0.201711,0.11624 -0.276395,0.204088 -0.07468,0.08785 -0.12368,0.201479 -0.117212,0.316602 0.0057,0.100788 0.05273,0.195313 0.11296,0.276322 0.06023,0.08101 0.133771,0.150988 0.201937,0.225444 0.10367,0.113235 0.1959,0.238355 0.260432,0.377657 0.06453,0.139303 0.100642,0.293535 0.09036,0.446715 -0.0065,0.09681 -0.03172,0.192921 -0.07868,0.277826 -0.08962,0.162039 -0.260508,0.276359 -0.444487,0.297351 -0.183979,0.02099 -0.376226,-0.05189 -0.500048,-0.189575 -0.192239,-0.107906 -0.403908,-0.181077 -0.621747,-0.214929 -0.237012,-0.03683 -0.479095,-0.02725 -0.717378,1.79e-4 -0.164579,0.01895 -0.329954,0.04686 -0.482707,0.11098 -0.152752,0.06413 -0.293302,0.167518 -0.377108,0.310423 -0.08445,0.144004 -0.105471,0.31516 -0.155831,0.474323 -0.02518,0.07958 -0.05846,0.157606 -0.108875,0.22413 -0.05042,0.06652 -0.119239,0.121175 -0.199515,0.144045 -0.07433,0.02118 -0.155254,0.01402 -0.227532,-0.01335 -0.07228,-0.02737 -0.13623,-0.07415 -0.18972,-0.12994 -0.106981,-0.111572 -0.171626,-0.255805 -0.240395,-0.394239 -0.08807,-0.177288 -0.186821,-0.35082 -0.314896,-0.501764 -0.04872,-0.05742 -0.101513,-0.111365 -0.148474,-0.170232 -0.202623,-0.25399 -0.285744,-0.599407 -0.220853,-0.917772 0.06489,-0.318364 0.276575,-0.603693 0.562443,-0.758115"
           id="path2459-0"
           inkscape:original-d="m 32.277175,29.774842 c -0.05361,-0.949246 0.278697,-1.787232 0.527824,-2.598968 0.260828,-0.849863 0.552624,-1.652317 1.15158,-2.186895 0.56096,-0.500665 1.016513,-0.718547 1.774488,-0.260321 0.104771,0.06333 0.225924,0.123975 0.295941,0.241885 0.25521,0.429758 -0.117281,0.8896 -0.281861,1.138182 -0.02186,0.03304 -0.06129,0.04518 -0.0807,0.08068 -0.06137,0.112282 -0.106255,0.239 -0.159383,0.358501 -0.03867,0.08699 -0.134103,0.274178 -0.0458,0.304702 0.307318,0.106242 0.531934,-0.113312 0.814012,-0.1167 0.133429,-0.0016 0.272458,0.06466 0.408517,0.08951 0.354069,0.06466 0.504454,0.215639 0.642713,0.671952 0.03212,0.105922 0.04541,0.219719 0.0359,0.322605 -0.01637,0.177083 -0.194438,0.745056 -0.284878,0.842452 -0.127186,0.13696 -1.027192,0.618539 -1.002255,0.842631 0.02488,0.223527 0.195631,0.360134 0.314897,0.501766 0.260184,0.308982 0.304918,0.412099 0.350795,0.824372 0.01152,0.103446 -0.0089,0.22527 -0.07868,0.277826 -0.183742,0.138457 -0.721272,0.14176 -0.944535,0.107776 -0.227001,0.161174 -0.413623,-0.169321 -0.621747,-0.214929 -0.243212,-0.05329 -0.489144,-0.04177 -0.717378,1.79e-4 -0.241619,0.0444 -0.690212,0.203418 -0.859815,0.421403 -0.135337,0.173952 -0.24766,0.833939 -0.464221,0.842498 -0.23777,0.0094 -0.499103,-0.340896 -0.657647,-0.537528 -0.176987,-0.219495 -0.184396,-0.290167 -0.314896,-0.501764 -0.0407,-0.06599 -0.117015,-0.0984 -0.148474,-0.170232 -0.213985,-0.488192 0.190529,-1.336102 0.34159,-1.675887"
           inkscape:path-effect="#path-effect2461-1" />
        <a
           id="a3563-2"
           transform="matrix(0.62295884,0.2442734,-0.18646499,0.75328474,29.146725,-8.9866865)">
          <ellipse
             style="fill:#803300;fill-opacity:1;stroke:#803300;stroke-width:0.765;stroke-linecap:round;stroke-linejoin:bevel;stroke-dasharray:none;stroke-opacity:1;paint-order:markers fill stroke"
             id="path3499-1"
             cx="23.062159"
             cy="45.034973"
             rx="1.5941584"
             ry="1.3550346" />
          <ellipse
             style="fill:#803300;fill-opacity:1;stroke:#803300;stroke-width:0.765;stroke-linecap:round;stroke-linejoin:bevel;stroke-dasharray:none;stroke-opacity:1;paint-order:markers fill stroke"
             id="path3553-6"
             cx="21.388292"
             cy="42.696873"
             rx="1.1956187"
             ry="1.0893415" />
          <circle
             style="fill:#803300;fill-opacity:1;stroke:#803300;stroke-width:0.765;stroke-linecap:round;stroke-linejoin:bevel;stroke-dasharray:none;stroke-opacity:1;paint-order:markers fill stroke"
             id="path3555-7"
             cx="20.910044"
             cy="46.788548"
             r="0.77050984" />
          <ellipse
             style="fill:#803300;fill-opacity:1;stroke:#803300;stroke-width:0.765;stroke-linecap:round;stroke-linejoin:bevel;stroke-dasharray:none;stroke-opacity:1;paint-order:markers fill stroke"
             id="path3557-5"
             cx="23.248142"
             cy="43.148552"
             rx="0.55795538"
             ry="0.42510888" />
        </a>
        <a
           id="a3612-6"
           transform="matrix(0.44183638,0.7196252,-0.7196252,0.44183638,43.145507,-18.697355)">
          <circle
             style="fill:#aa0000;fill-opacity:1;stroke:#9d160e;stroke-width:0.765;stroke-linecap:round;stroke-linejoin:bevel;stroke-dasharray:none;stroke-opacity:1;paint-order:markers fill stroke"
             id="path2278-2"
             r="1.992698"
             cy="36.585934"
             cx="36.107685" />
          <path
             style="fill:#c44444;fill-opacity:1;stroke:#9d160e;stroke-width:0.532066;stroke-linecap:round;stroke-linejoin:bevel;stroke-dasharray:none;stroke-opacity:0;paint-order:markers fill stroke"
             id="path2278-6-6"
             class="UnoptimicedTransforms"
             transform="translate(-0.15637216,0.03909304)"
             d="m 36.063332,35.185547 c -2.77e-4,0 -5.55e-4,0 -8.32e-4,0 -0.765436,0 -1.384766,0.621283 -1.384766,1.386719 0,0.765435 0.61933,1.384765 1.384766,1.384765 2.77e-4,0 5.55e-4,0 8.32e-4,0 z"
             sodipodi:type="arc"
             sodipodi:ry="1.3859437"
             sodipodi:rx="1.3859437"
             sodipodi:cy="36.571537"
             sodipodi:cx="36.063332"
             inkscape:path-effect="#path-effect3593-5" />
          <path
             class="UnoptimicedTransforms"
             id="path3595-7"
             d="m 36.063332,37.957031 c 0.765053,-4.49e-4 1.385887,-0.619607 1.385887,-1.384765 0,-0.765159 -0.620834,-1.386269 -1.385887,-1.386719 z"
             style="display:inline;fill:#c44444;fill-opacity:1;stroke:#9d160e;stroke-width:0.532066;stroke-linecap:round;stroke-linejoin:bevel;stroke-dasharray:none;stroke-opacity:0;paint-order:markers fill stroke"
             transform="translate(0.31274433,0.03909304)" />
        </a>
      </g>
      <g
         inkscape:label="Wug"
         inkscape:groupmode="layer"
         id="layer1-7-9"
         transform="matrix(2.8410469,0,0,2.8410469,-56.067457,-34.242284)"
         style="display:inline;fill:#71b3e5;fill-opacity:1">
        <a
           id="a3615-3"
           style="fill:#71b3e5;fill-opacity:1;stroke:#55648d;stroke-width:0.436811;stroke-dasharray:none;stroke-opacity:1"
           inkscape:path-effect="#path-effect4968">
          <path
             style="fill:#71b3e5;fill-opacity:1;stroke:#55648d;stroke-width:0.436811;stroke-linecap:round;stroke-linejoin:bevel;stroke-dasharray:none;stroke-opacity:1;paint-order:markers fill stroke"
             id="rect933-1-8"
             width="7.8612056"
             height="13.221285"
             x="27.932093"
             y="21.849892"
             ry="4.9633446"
             sodipodi:type="rect"
             rx="0.29911077"
             d="m 32.020198,21.353717 c 0.554346,-0.175338 1.108548,-0.351142 1.662984,-0.526188 0.09769,-0.02607 0.20452,-0.03751 0.302224,-0.0056 0.05146,0.01366 0.07443,0.06405 0.09607,0.107571 0.116207,0.231564 0.204793,0.475695 0.292958,0.718932 0.222126,0.625233 0.407412,1.262597 0.58787,1.900863 0.222614,0.783193 0.446255,1.566096 0.668134,2.349497 0.159757,0.570744 0.312971,1.143355 0.457018,1.71827 0.144643,0.608294 0.08026,1.25517 -0.136629,1.838332 -0.31439,0.847024 -0.923915,1.573521 -1.680674,2.062046 -0.509401,0.329137 -1.091978,0.547224 -1.694916,0.619083 -1.635718,0.219928 -3.271435,0.439857 -4.907153,0.659785 -0.0416,-0.01419 -0.03648,-0.07322 -0.04501,-0.109639 -0.01868,-0.199963 -0.0059,-0.40124 0.0027,-0.601405 0.04148,-0.721386 0.121247,-1.439927 0.204711,-2.157459 0.114948,-0.973753 0.251965,-1.944738 0.400544,-2.913887 0.116817,-0.768399 0.232471,-1.536977 0.350221,-2.305233 0.06178,-0.453866 0.260306,-0.878911 0.517944,-1.253792 0.378299,-0.547218 0.877739,-1.00316 1.427594,-1.373852 0.461405,-0.308905 0.963757,-0.558982 1.493365,-0.727278 z"
             inkscape:path-effect="#path-effect968-3-1;#path-effect970-5-2" />
        </a>
        <circle
           style="fill:#000000;fill-opacity:1;stroke:#000000;stroke-width:0.553669;stroke-linecap:round;stroke-linejoin:bevel;stroke-dasharray:none;stroke-opacity:1;paint-order:markers fill stroke"
           id="path2170-9"
           cx="32.417061"
           cy="23.414795"
           r="0.34540096" />
      </g>
    </g>
    <g
       inkscape:groupmode="layer"
       id="layer3"
       inkscape:label="ActualTaco"
       transform="matrix(0.94541676,0,0,0.93912272,-8.1442385,-2.137447)"
       style="display:inline">
      <g
         id="path4179"
         class="UnoptimicedTransforms"
         transform="matrix(1.7980021e-4,-1.3582799,0.9810297,2.4894151e-4,-3.1361395,157.90737)"
         style="display:inline">
        <path
           style="color:#000000;fill:#dfad2e;stroke-width:0.765;stroke-linecap:round;stroke-linejoin:bevel;-inkscape-stroke:none;paint-order:markers fill stroke"
           d="M 61.650968,88.463118 C 74.908805,85.764893 85.063139,70.791671 85.11891,52.700577 c 2.55e-4,-0.08273 2.55e-4,-0.216858 0,-0.299583 -0.05511,-17.876512 -9.970635,-32.708679 -22.997494,-35.66137 -2.586135,-0.586178 -4.771543,1.619575 -4.771543,4.276819 v 63.549883 c 0,2.39148 1.961598,4.372924 4.301095,3.896792 z"
           id="path4200"
           inkscape:path-effect="#path-effect4202"
           inkscape:original-d="m 57.349873,88.896484 c 15.33696,-1.87e-4 27.769268,-16.272925 27.769268,-36.345703 0,-20.072777 -12.432308,-36.345515 -27.769268,-36.345703 z" />
        <path
           style="color:#000000;fill:#9d160e;fill-opacity:0;stroke-linecap:round;stroke-linejoin:bevel;-inkscape-stroke:none;paint-order:markers fill stroke"
           d="m 57.349609,15.822266 -0.382812,0.382812 v 72.691406 l 0.382812,0.382813 c 7.803751,-9.5e-5 14.857279,-4.144994 19.939453,-10.796875 5.082175,-6.651881 8.212891,-15.816293 8.212891,-25.931641 0,-10.115347 -3.130716,-19.27976 -8.212891,-25.93164 C 72.206888,19.96726 65.15336,15.822361 57.349609,15.822266 Z m 0.382813,0.816406 c 7.377725,0.136189 14.067469,4.053807 18.949219,10.443359 4.968209,6.502717 8.054687,15.51134 8.054687,25.46875 0,9.957411 -3.086478,18.966034 -8.054687,25.46875 -4.88175,6.389552 -11.571494,10.307171 -18.949219,10.44336 z"
           id="path4192" />
      </g>
      <path
         style="display:inline;fill:none;fill-rule:evenodd;stroke:#905810;stroke-width:2.12255;stroke-linecap:round;stroke-linejoin:miter;stroke-dasharray:none;stroke-opacity:1"
         d="m 48.176713,48.074658 0.332844,26.638496"
         id="path5234"
         inkscape:connector-type="polyline"
         inkscape:connector-curvature="0" />
      <path
         style="display:inline;fill:none;fill-rule:evenodd;stroke:#905810;stroke-width:2.12255;stroke-linecap:round;stroke-linejoin:miter;stroke-dasharray:none;stroke-opacity:1"
         d="m 61.097834,53.154869 0.391308,21.336666"
         id="path5234-7"
         inkscape:connector-type="polyline"
         inkscape:connector-curvature="0" />
      <path
         style="display:inline;fill:none;fill-rule:evenodd;stroke:#905810;stroke-width:2.12255;stroke-linecap:round;stroke-linejoin:miter;stroke-dasharray:none;stroke-opacity:1"
         d="m 35.230638,53.077512 0.391308,21.336666"
         id="path5234-7-7"
         inkscape:connector-type="polyline"
         inkscape:connector-curvature="0" />
    </g>
  </g>
</svg>
